<svg viewBox="0 0 39 42" fill="none" xmlns="http://www.w3.org/2000/svg">
<g filter="url(#filter0_b_2673_686)">
<path d="M19.9626 8L34 12.6893L27.6555 29.4611L22.3433 23.4413L13.6181 24.7718L19.9626 8Z" fill="#D6D9DD"/>
</g>
<g opacity="0.12" filter="url(#filter1_bdiif_2673_686)">
<path d="M10 14.2H24.8979V32L17.7469 28L10 32V14.2Z" fill="#78808D"/>
</g>
<path opacity="0.9" d="M16.9857 20.14C17.1367 19.703 17.7612 19.703 17.9122 20.14C17.9777 20.3292 18.1567 20.4584 18.3569 20.4584H18.4071C18.8539 20.4584 19.0322 21.0358 18.6633 21.2877C18.4941 21.4032 18.4236 21.6189 18.4905 21.8125C18.6364 22.2344 18.1619 22.6035 17.7933 22.3518L17.7255 22.3056C17.5587 22.1917 17.3392 22.1917 17.1724 22.3056L17.1047 22.3518C16.736 22.6035 16.2615 22.2344 16.4074 21.8125C16.4743 21.6189 16.4038 21.4032 16.2347 21.2877C15.8657 21.0358 16.044 20.4584 16.4908 20.4584H16.541C16.7412 20.4584 16.9202 20.3292 16.9857 20.14Z" fill="#D6D9DD"/>
<defs>
<filter id="filter0_b_2673_686" x="9.6181" y="4" width="28.3819" height="29.4612" filterUnits="userSpaceOnUse" color-interpolation-filters="sRGB">
<feFlood flood-opacity="0" result="BackgroundImageFix"/>
<feGaussianBlur in="BackgroundImageFix" stdDeviation="2"/>
<feComposite in2="SourceAlpha" operator="in" result="effect1_backgroundBlur_2673_686"/>
<feBlend mode="normal" in="SourceGraphic" in2="effect1_backgroundBlur_2673_686" result="shape"/>
</filter>
<filter id="filter1_bdiif_2673_686" x="-10" y="-5.80005" width="54.8979" height="57.8" filterUnits="userSpaceOnUse" color-interpolation-filters="sRGB">
<feFlood flood-opacity="0" result="BackgroundImageFix"/>
<feGaussianBlur in="BackgroundImageFix" stdDeviation="10"/>
<feComposite in2="SourceAlpha" operator="in" result="effect1_backgroundBlur_2673_686"/>
<feColorMatrix in="SourceAlpha" type="matrix" values="0 0 0 0 0 0 0 0 0 0 0 0 0 0 0 0 0 0 127 0" result="hardAlpha"/>
<feOffset dx="2" dy="-2"/>
<feGaussianBlur stdDeviation="6"/>
<feComposite in2="hardAlpha" operator="out"/>
<feColorMatrix type="matrix" values="0 0 0 0 0.9375 0 0 0 0 0.0429688 0 0 0 0 0.0429688 0 0 0 0.25 0"/>
<feBlend mode="color-burn" in2="effect1_backgroundBlur_2673_686" result="effect2_dropShadow_2673_686"/>
<feBlend mode="normal" in="SourceGraphic" in2="effect2_dropShadow_2673_686" result="shape"/>
<feColorMatrix in="SourceAlpha" type="matrix" values="0 0 0 0 0 0 0 0 0 0 0 0 0 0 0 0 0 0 127 0" result="hardAlpha"/>
<feOffset dy="-10"/>
<feGaussianBlur stdDeviation="25"/>
<feComposite in2="hardAlpha" operator="arithmetic" k2="-1" k3="1"/>
<feColorMatrix type="matrix" values="0 0 0 0 0.839216 0 0 0 0 0.85098 0 0 0 0 0.866667 0 0 0 1 0"/>
<feBlend mode="normal" in2="shape" result="effect3_innerShadow_2673_686"/>
<feColorMatrix in="SourceAlpha" type="matrix" values="0 0 0 0 0 0 0 0 0 0 0 0 0 0 0 0 0 0 127 0" result="hardAlpha"/>
<feOffset dx="10" dy="-10"/>
<feGaussianBlur stdDeviation="8"/>
<feComposite in2="hardAlpha" operator="arithmetic" k2="-1" k3="1"/>
<feColorMatrix type="matrix" values="0 0 0 0 0.101961 0 0 0 0 0.12549 0 0 0 0 0.164706 0 0 0 1 0"/>
<feBlend mode="normal" in2="effect3_innerShadow_2673_686" result="effect4_innerShadow_2673_686"/>
<feGaussianBlur stdDeviation="0.5" result="effect5_foregroundBlur_2673_686"/>
</filter>
</defs>
</svg>
