<svg xmlns="http://www.w3.org/2000/svg" version="1.1" xmlns:xlink="http://www.w3.org/1999/xlink" xmlns:svgjs="http://svgjs.com/svgjs" x="0" y="0" viewBox="0 0 512 512" style="enable-background:new 0 0 512 512" xml:space="preserve" class=""><g><path d="M57.682 262.162h-.006l-4.11.039 4.315-3.009a1.063 1.063 0 0 0-1.216-1.744l-5.822 4.059.041-6.864a1.063 1.063 0 0 0-1.056-1.069h-.006c-.583 0-1.058.471-1.062 1.056l-.036 6.058-3.643-3.85a1.065 1.065 0 0 0-1.502-.042 1.065 1.065 0 0 0-.042 1.502l3.748 3.961-6.807.065a1.062 1.062 0 0 0 .01 2.125h.01l6.209-.059-4.809 3.352a1.063 1.063 0 0 0 1.216 1.743l5.579-3.89-.041 6.915a1.062 1.062 0 0 0 1.056 1.069h.006c.583 0 1.058-.471 1.062-1.056l.039-6.531 3.883 4.103a1.064 1.064 0 0 0 1.502.042 1.065 1.065 0 0 0 .042-1.502l-4.066-4.297 5.519-.053a1.062 1.062 0 0 0-.013-2.123zM413.152 76.772h-.006l-4.11.039 4.315-3.009a1.063 1.063 0 0 0-1.216-1.744l-5.822 4.059.041-6.864a1.062 1.062 0 0 0-1.056-1.069h-.006c-.583 0-1.058.471-1.062 1.056l-.036 6.058-3.643-3.85a1.065 1.065 0 0 0-1.502-.042 1.065 1.065 0 0 0-.042 1.502l3.748 3.961-6.807.065a1.062 1.062 0 0 0 .01 2.125h.01l6.209-.059-4.809 3.352a1.063 1.063 0 0 0 1.216 1.743l5.579-3.89-.041 6.915a1.062 1.062 0 0 0 1.056 1.069h.006c.583 0 1.058-.471 1.062-1.056l.039-6.531 3.883 4.103a1.064 1.064 0 0 0 1.502.041 1.065 1.065 0 0 0 .042-1.502l-4.066-4.297 5.519-.053a1.06 1.06 0 0 0-.013-2.122zM377.015 420.382h-.006l-4.11.039 4.315-3.009a1.063 1.063 0 0 0-1.216-1.744l-5.822 4.059.041-6.864a1.062 1.062 0 0 0-1.056-1.069h-.006c-.583 0-1.058.471-1.062 1.056l-.036 6.058-3.643-3.85a1.065 1.065 0 0 0-1.502-.042 1.065 1.065 0 0 0-.042 1.502l3.748 3.961-6.807.065a1.062 1.062 0 0 0 .01 2.125h.01l6.209-.059-4.809 3.352a1.063 1.063 0 0 0 1.216 1.743l5.579-3.89-.041 6.915a1.063 1.063 0 0 0 1.056 1.069h.006c.583 0 1.058-.471 1.062-1.056l.039-6.531 3.883 4.103a1.064 1.064 0 0 0 1.502.042 1.065 1.065 0 0 0 .042-1.502l-4.066-4.297 5.519-.053a1.062 1.062 0 0 0-.013-2.123zM121.467 54.105l-.031.002c-4.046.19-7.491-2.949-7.681-6.997-.189-4.03 2.935-7.474 6.964-7.679a7.32 7.32 0 0 1 5.323 1.906 7.303 7.303 0 0 1 2.391 5.087c.186 4.029-2.94 7.476-6.966 7.681zm-.617-12.554c-2.887.147-5.106 2.596-4.972 5.458a5.228 5.228 0 0 0 5.458 4.974l.077 1.06-.054-1.061a5.236 5.236 0 0 0 4.952-5.459 5.179 5.179 0 0 0-1.701-3.616 5.187 5.187 0 0 0-3.76-1.356zM90.778 211.905l-.031.002c-4.046.19-7.491-2.949-7.681-6.997-.189-4.03 2.935-7.474 6.964-7.679a7.32 7.32 0 0 1 5.323 1.906 7.303 7.303 0 0 1 2.391 5.087c.187 4.029-2.939 7.475-6.966 7.681zm-.617-12.554c-2.887.147-5.106 2.596-4.972 5.458a5.228 5.228 0 0 0 5.458 4.974l.077 1.06-.054-1.061a5.236 5.236 0 0 0 4.952-5.459 5.179 5.179 0 0 0-1.701-3.616 5.186 5.186 0 0 0-3.76-1.356zM333.012 432.89l-.031.002c-4.046.19-7.491-2.949-7.681-6.997-.189-4.03 2.935-7.474 6.964-7.679a7.32 7.32 0 0 1 5.323 1.906 7.303 7.303 0 0 1 2.391 5.087c.186 4.029-2.939 7.476-6.966 7.681zm-.617-12.554c-2.887.147-5.106 2.596-4.972 5.458a5.228 5.228 0 0 0 5.458 4.974l.077 1.06-.054-1.061a5.236 5.236 0 0 0 4.952-5.459 5.179 5.179 0 0 0-1.701-3.616 5.186 5.186 0 0 0-3.76-1.356zM457.196 139.445l-.031.002c-4.046.19-7.491-2.949-7.681-6.997-.189-4.03 2.935-7.474 6.964-7.679a7.32 7.32 0 0 1 5.323 1.906 7.303 7.303 0 0 1 2.391 5.087c.186 4.029-2.94 7.475-6.966 7.681zm-.617-12.554c-2.887.147-5.106 2.596-4.972 5.458a5.228 5.228 0 0 0 5.458 4.974l.077 1.06-.054-1.061a5.236 5.236 0 0 0 4.952-5.459 5.179 5.179 0 0 0-1.701-3.616 5.187 5.187 0 0 0-3.76-1.356zM84.404 452.013l-.031.002c-4.046.19-7.491-2.949-7.681-6.997-.189-4.03 2.935-7.474 6.964-7.679a7.32 7.32 0 0 1 5.323 1.906 7.303 7.303 0 0 1 2.391 5.087c.186 4.03-2.94 7.476-6.966 7.681zm-.617-12.553c-2.887.147-5.106 2.596-4.972 5.458a5.228 5.228 0 0 0 5.458 4.974l.077 1.06-.054-1.061a5.236 5.236 0 0 0 4.952-5.459 5.179 5.179 0 0 0-1.701-3.616 5.187 5.187 0 0 0-3.76-1.356z" style="" fill="#241726" data-original="#241726" class=""></path><path d="M403.438 430.472s-2.097-15.916 13.223-10.766 10.328 19.722 4.487 14.735c-5.841-4.987 5.118-21.899 16.841-14.368 11.723 7.531 9.101 22.144.786 23.222-8.315 1.078 5.034-17.015 15.509-5.841 10.475 11.174-12.396 31.546-21.749 24.056-9.353-7.49-2.034-19.579.21-12.212 2.244 7.368-3.807 14.593-20.396 14.307-16.589-.285-9.038-25.807-3.24-18.379 5.798 7.429-3.828 15.814-15.53 7.062-11.701-8.75 1.649-26.843 9.859-21.816z" style="" fill="#ffffff" data-original="#ffffff" class=""></path><path d="m413.292 464.677-.962-.008c-5.437-.093-9.264-2.879-10.613-7.68-2.86-.361-5.877-1.682-8.773-3.848-4.586-3.43-6.139-8.635-4.261-14.283 1.924-5.784 7.049-10.316 11.667-10.316.665 0 1.309.089 1.927.267-.02-2.215.322-5.986 2.568-8.546 2.51-2.862 6.64-3.415 12.155-1.564 2.126.715 3.988 1.642 5.551 2.765 2.636-2.781 5.999-4.357 9.36-4.357 2.275 0 4.514.697 6.654 2.071 5.067 3.256 8.143 8.261 8.395 13.56 2.974.084 5.697 1.425 8.101 3.989 3.261 3.479 3.863 8.153 1.692 13.162-3.299 7.616-12.309 14.297-19.281 14.297-2.184.001-4.067-.621-5.599-1.848a15.115 15.115 0 0 1-1.975-1.891c-3.664 2.772-9.371 4.23-16.606 4.23zm-9.321-7.605c.946 2.682 3.195 5.383 8.397 5.472l.924.008c8.342 0 12.897-1.957 15.343-3.815-2.335-3.779-2.157-7.909-.857-10.468.751-1.478 1.842-2.327 2.991-2.327.772 0 2.185.396 2.993 3.047 1.123 3.69.289 7.298-2.283 10.042a12.978 12.978 0 0 0 1.719 1.65c1.145.916 2.581 1.382 4.27 1.381 6.119 0 14.38-6.204 17.332-13.017 1.282-2.96 2.099-7.247-1.293-10.865-1.997-2.13-4.218-3.245-6.603-3.318-.5 5.089-3.684 8.928-7.994 9.486-2.803.372-3.745-1.103-3.8-2.463-.121-2.997 4.2-8.036 9.727-8.992-.201-4.632-2.925-9.037-7.422-11.926-4.423-2.844-9.494-1.999-13.222 1.853 3.619 3.444 4.292 7.681 3.283 10.509-.704 1.972-2.213 3.198-3.938 3.199h-.001c-1.034 0-2.099-.442-3.078-1.278-3.223-2.753-2.181-8.127.73-12.147-1.365-.959-2.997-1.761-4.866-2.388-4.634-1.557-7.947-1.253-9.881.949-2.657 3.032-1.958 8.614-1.951 8.67a1.061 1.061 0 0 1-1.608 1.045 4.788 4.788 0 0 0-2.533-.711c-3.697 0-8.025 3.976-9.651 8.862-.743 2.235-1.888 7.868 3.517 11.911 2.362 1.767 4.781 2.903 7.072 3.333-.471-4.122.791-8.139 2.454-10.203.927-1.151 2.009-1.759 3.128-1.759.776 0 1.939.306 3.077 1.764 2.061 2.639 2.528 5.616 1.283 8.166-1.226 2.515-3.973 4.137-7.259 4.33zm26.799-9.004c-.195 0-.666.316-1.097 1.164-.951 1.873-1.107 5.049.553 8.017 1.828-2.144 2.365-4.814 1.503-7.64-.341-1.122-.769-1.541-.959-1.541zm-23.9-3.133c-.448 0-.971.343-1.474.967-1.416 1.758-2.455 5.516-1.938 9.063 2.692-.043 4.93-1.244 5.864-3.156.875-1.792.492-3.953-1.049-5.927-.337-.432-.854-.947-1.403-.947zm37.873-9.859c-4.455.99-7.575 5.081-7.509 6.725.008.202.02.479.867.479.164 0 .343-.012.536-.037 3.19-.414 5.581-3.288 6.106-7.167zm-21.914-10.62c-2.512 3.5-2.993 7.469-.991 9.178 1.512 1.295 2.983.818 3.637-1.019.764-2.141.196-5.394-2.646-8.159z" style="" fill="#241726" data-original="#241726" class=""></path><path d="M147.747 47.29s-2.097-15.916 13.223-10.766 10.328 19.722 4.487 14.735 5.118-21.899 16.841-14.368 9.101 22.144.786 23.222c-8.315 1.078 5.034-17.015 15.509-5.841 10.475 11.174-12.396 31.546-21.749 24.056-9.353-7.49-2.034-19.579.21-12.212 2.244 7.368-3.807 14.593-20.396 14.307s-9.038-25.807-3.24-18.379c5.799 7.429-3.828 15.814-15.53 7.062s1.648-26.844 9.859-21.816z" style="" fill="#ffffff" data-original="#ffffff" class=""></path><path d="m157.605 81.494-.965-.008c-5.438-.093-9.265-2.879-10.613-7.679-2.861-.362-5.879-1.683-8.774-3.849-4.586-3.429-6.139-8.634-4.261-14.282 1.924-5.784 7.049-10.316 11.667-10.316.665 0 1.309.089 1.927.266-.02-2.215.322-5.986 2.568-8.546 2.511-2.862 6.641-3.415 12.155-1.564 2.126.715 3.988 1.642 5.551 2.764 2.635-2.78 5.998-4.356 9.36-4.356 2.275 0 4.514.697 6.654 2.072 5.067 3.255 8.143 8.26 8.395 13.559 2.974.084 5.698 1.426 8.102 3.99 3.261 3.478 3.862 8.152 1.692 13.16-3.299 7.618-12.31 14.299-19.282 14.299-2.184.001-4.067-.621-5.599-1.848a15.115 15.115 0 0 1-1.975-1.891c-3.665 2.771-9.369 4.229-16.602 4.229zm-9.325-7.605c.947 2.682 3.195 5.383 8.398 5.472l.928.008c8.339 0 12.893-1.956 15.339-3.814-2.335-3.78-2.157-7.909-.857-10.469.751-1.478 1.842-2.326 2.991-2.326.771 0 2.185.395 2.993 3.047 1.124 3.69.289 7.298-2.283 10.042a12.978 12.978 0 0 0 1.719 1.65c1.145.916 2.581 1.382 4.27 1.381 6.119 0 14.381-6.205 17.333-13.019 1.282-2.959 2.098-7.245-1.293-10.863-1.998-2.131-4.219-3.246-6.604-3.318-.5 5.088-3.684 8.927-7.994 9.486-2.81.353-3.744-1.105-3.8-2.464-.12-2.997 4.2-8.036 9.727-8.992-.201-4.632-2.925-9.037-7.422-11.925-4.425-2.842-9.495-2-13.222 1.852 3.619 3.445 4.292 7.682 3.283 10.51-.704 1.972-2.213 3.198-3.938 3.198-1.034 0-2.099-.442-3.079-1.278-3.224-2.753-2.181-8.127.729-12.147-1.364-.959-2.996-1.761-4.865-2.388-4.628-1.556-7.943-1.254-9.876.944-2.652 3.017-1.963 8.621-1.956 8.677a1.063 1.063 0 0 1-1.608 1.044 4.788 4.788 0 0 0-2.533-.711c-3.696 0-8.025 3.976-9.651 8.863-.743 2.234-1.887 7.867 3.517 11.909 2.362 1.767 4.781 2.903 7.073 3.334-.471-4.123.79-8.139 2.453-10.204.927-1.15 2.009-1.758 3.128-1.758.776 0 1.94.306 3.077 1.764 2.061 2.639 2.528 5.615 1.284 8.165-1.229 2.516-3.974 4.138-7.261 4.33zm26.798-9.003c-.195 0-.666.315-1.097 1.163-.951 1.873-1.107 5.05.553 8.018 1.828-2.144 2.365-4.814 1.503-7.64-.341-1.123-.769-1.541-.959-1.541zm-23.899-3.133c-.448 0-.971.342-1.473.966-1.416 1.759-2.455 5.517-1.938 9.064 2.691-.044 4.929-1.245 5.863-3.157.875-1.792.492-3.952-1.049-5.926-.338-.432-.855-.947-1.403-.947zm37.872-9.859c-4.455.989-7.574 5.08-7.508 6.724.007.202.019.479.866.479.164 0 .343-.012.536-.037 3.19-.414 5.582-3.287 6.106-7.166zm-21.913-10.621c-2.512 3.5-2.993 7.469-.991 9.178 1.51 1.291 2.981.821 3.637-1.018.764-2.141.197-5.394-2.646-8.16zM454.823 221.903c-.467 0-.884-.268-1.116-.717a327.39 327.39 0 0 1-4.261-8.611 92.501 92.501 0 0 1-4.817.142c-5.508.001-6.364-.694-6.769-1.406-.261-.46-.248-.998.037-1.478.779-1.309 4.565-4.82 7.108-7.108-3.799-9.12-3.595-11.414-2.024-12.113.309-.138.666-.12.962.05.043.025 4.114 2.371 8.893 5.303 7.9-6.547 8.906-6.547 9.397-6.547.565 0 1.184.572 1.213 1.137.052 1.022-1.173 7.032-2.011 10.906 7.112 4.802 7.735 6.139 7.748 7.092.006.479-.214.914-.606 1.193-1.179.838-5.683 1.535-9.532 1.994-2.561 10.164-3.297 10.163-4.222 10.163zm-3.09-9.47a357.22 357.22 0 0 0 3.095 6.278c.402-1.095 1.029-3.09 1.96-6.719-1.682.174-3.391.323-5.055.441zm-11.531-2.128c.651.135 1.937.287 4.426.287 1.15 0 2.435-.032 3.835-.096a216.407 216.407 0 0 1-2.578-5.703c-3.079 2.787-4.868 4.576-5.683 5.512zm7.351-7.008c.908 2.118 1.981 4.49 3.198 7.072 2.152-.138 4.402-.334 6.588-.573a329 329 0 0 0 1.711-7.374 247.534 247.534 0 0 0-6.028-3.847 265.279 265.279 0 0 0-5.469 4.722zm13.39.401c-.432 1.938-.89 3.926-1.353 5.834 3.821-.482 6.122-.959 7.162-1.28-.547-.62-1.992-1.939-5.809-4.554zm-16.884-10.511c.129 1.047.684 3.294 2.626 8.04a265.84 265.84 0 0 1 4.429-3.824 416.46 416.46 0 0 0-7.055-4.216zm10.685 3.956a251.462 251.462 0 0 1 4.789 3.053c.79-3.69 1.306-6.389 1.573-7.969-1.132.773-3.153 2.276-6.362 4.916zM117.31 374.115c-.154 0-.508-.082-.647-.145-1.386-.633-5.288-4.016-7.837-6.296-6.801 3.742-9.011 4.186-10.083 4.186-1.023 0-1.511-.469-1.739-.862a1.064 1.064 0 0 1-.055-.962c.02-.045 1.91-4.346 4.308-9.415-7.935-7.693-7.703-8.433-7.479-9.148.12-.385.553-.749.95-.813.114-.019.308-.033.575-.033 1.445 0 5.607.338 10.486.85 4.123-7.82 5.381-8.483 6.393-8.483.412 0 .791.172 1.068.485.962 1.081 2.141 5.482 3.016 9.26 10.184 1.417 10.348 2.132 10.537 2.957.091.398-.009.956-.568 1.327a333.525 333.525 0 0 1-8.1 5.169c1.607 9.821.643 10.963.275 11.398a1.425 1.425 0 0 1-1.1.525zm-6.524-7.54c3.106 2.76 5.079 4.344 6.097 5.053.101-1.106.015-3.602-.707-8.235a226.515 226.515 0 0 1-5.39 3.182zm-7.914-4.399a419.34 419.34 0 0 0-3.421 7.46c1.099-.254 3.303-1.085 7.703-3.471a269.889 269.889 0 0 1-4.282-3.989zm.96-2.022a262.63 262.63 0 0 0 5.285 4.924 220.772 220.772 0 0 0 6.685-3.946 150.33 150.33 0 0 0-1.283-6.487 318.52 318.52 0 0 0-7.516-.902 240.852 240.852 0 0 0-3.171 6.411zm12.929-5.199c.356 1.653.689 3.336.986 4.978a366.669 366.669 0 0 0 5.907-3.757c-1.133-.281-3.184-.689-6.893-1.221zm-20.093-2.15c.907 1.08 2.615 2.92 5.554 5.792.89-1.851 1.733-3.555 2.516-5.092-3.315-.34-6.27-.595-8.07-.7zm11.396-1.082c1.974.219 4.001.461 5.947.713-.909-3.811-1.641-6.06-2.07-7.032-.456.546-1.607 2.086-3.877 6.319zM92.031 266.69c-.785 0-1.529 0-3.599-8.244-6.988-1.346-7.6-2.167-7.804-2.443-.197-.265-.282-.75-.193-1.068.127-.447.419-1.485 8.403-4.703 2.867-7.474 3.839-7.474 4.485-7.474.336 0 .797.241.998.509.514.69.978 2.479 1.683 5.343.221.896.487 1.98.64 2.456.419.187 1.346.519 2.113.794 4.102 1.471 5.161 1.972 5.353 2.952.072.367-.115.903-.393 1.153-.834.748-4.802 2.221-6.883 2.962-3.38 7.691-4.102 7.729-4.742 7.763h-.061zm-8.701-11.601c1.397.403 3.942.98 6.163 1.394.41.077.737.386.836.791.568 2.301 1.31 4.922 1.845 6.417.774-1.392 1.946-3.859 2.897-6.037.118-.271.343-.48.621-.578 1.898-.667 4.041-1.488 5.375-2.072-.934-.393-2.204-.849-3.028-1.144-2.348-.841-2.79-1.024-3.092-1.43-.262-.353-.425-.943-1.008-3.313-.219-.891-.555-2.259-.855-3.283-.696 1.328-1.669 3.587-2.427 5.587-.106.278-.324.5-.6.61-2.463.984-5.26 2.239-6.727 3.058z" style="" fill="#241726" data-original="#241726" class=""></path><path d="M204.013 7.807 216.378 0 214 13.733l9.542 8.459-10.963 3.828-5.565 11.936-5.926-10.568-14.028-.653 10.154-10.419-5.089-12.213zM353.861 457.107l12.365-7.807-2.377 13.733 9.542 8.459-10.964 3.828-5.565 11.936-5.926-10.568-14.027-.653 10.154-10.419-5.089-12.213z" style="" fill="#fdd100" data-original="#e7b400" class="" opacity="1"></path><path d="M57.377 227.785c-.141 0-.282-.028-.418-.085-.299-.129-29.395-13.037-18.803-48.372l-11.843.598a1.034 1.034 0 0 1-.992-.561 1.063 1.063 0 0 1 .087-1.136c3.201-4.282 19.417-25.638 24.308-25.638.33 0 .635.07.908.208 3.842 1.946 16.16 20.434 17.552 22.536a1.065 1.065 0 0 1-.777 1.644l-12.922 1.329c-.535 4.116-2.058 23.652 15.223 34.396a1.066 1.066 0 0 1 .23 1.612l-11.76 13.117a1.075 1.075 0 0 1-.793.352zm-17.752-50.658a1.065 1.065 0 0 1 1.011 1.391c-10.272 31.574 12.226 44.736 16.483 46.9l10.397-11.596c-19.333-12.941-15.057-36.449-15.01-36.69.088-.46.468-.807.934-.856l11.989-1.234c-5.241-7.802-13.403-19.154-15.765-20.349-2.374.02-12.38 11.406-21.187 22.995l11.095-.56.053-.001zM442.553 405.46c-.929 0-1.62-.261-2.052-.776-2.769-3.298-6.844-25.136-7.299-27.616a1.064 1.064 0 0 1 1.359-1.207l12.409 3.848c2.107-3.574 11.175-20.945-.502-37.61a1.065 1.065 0 0 1 .421-1.573l15.964-7.448a1.06 1.06 0 0 1 1.217.228c.225.236 21.92 23.526-1.69 51.869l11.129 4.099a1.062 1.062 0 0 1 .166 1.917c-1.006.582-24.684 14.269-31.122 14.269zm-.428-2.159c.031 0 .164.034.427.034 4.454 0 20.275-8.434 28.084-12.854l-10.421-3.839a1.062 1.062 0 0 1-.433-1.697c21.838-25.009 6.311-45.944 3.246-49.605l-14.115 6.585c12.702 19.491-.457 39.434-.593 39.637-.261.389-.748.56-1.195.42l-11.511-3.57c1.754 9.214 4.799 22.823 6.502 24.892.001-.002.003-.003.009-.003zM81.768 395.082c-.303 0-.602-.131-.808-.387-.079-.098-6.984-11.195-6.022-12.737.589-.941.885-1.41 13.812 5.116a1.062 1.062 0 1 1-.957 1.897c-3.779-1.907-7.957-3.901-10.251-4.857 1.398 2.908 4.54 8.523 5.081 9.259.341.465.258 1.13-.198 1.483a1.077 1.077 0 0 1-.657.226z" style="" fill="#241726" data-original="#241726" class=""></path><path d="M97.293 399.486s3.217-16.276-5.904-15.562c-12.635.989-25.804 29.425-5.659 41.648 20.146 12.224 32.748-3.675 32.748-3.675l-11.028-5.779s10.398-5.384 11.239-11.81-7.165-2.674-7.165-2.674 11.439-12.323 5.176-14.421c-6.262-2.099-19.407 12.273-19.407 12.273z" style="" fill="#b1739a" data-original="#b1739a" class=""></path><path d="M88.595 395.102c-.281 0-.556-.039-.818-.129a1.658 1.658 0 0 1-1.085-1.114c-.517-1.711 1.681-4.908 3.037-6.661a1.061 1.061 0 1 1 1.681 1.3c-1.29 1.668-2.429 3.622-2.644 4.479.87-.113 2.619-1.283 3.847-2.462a1.062 1.062 0 0 1 1.473 1.531c-.806.775-3.359 3.056-5.491 3.056zM104.023 415.122a1.063 1.063 0 0 1-.45-2.025c2.488-1.162 6.557-3.8 6.888-5.935.031-.197.007-.271.006-.272-.488-.281-3.16.463-5.453 1.591a1.06 1.06 0 0 1-1.236-.219 1.06 1.06 0 0 1-.165-1.245c1.439-2.63 2.543-5.468 2.584-6.554-1.527.542-5.758 3.865-9.145 6.975a1.063 1.063 0 0 1-1.438-1.564c9.584-8.8 11.284-7.716 11.837-7.359 1.309.84 1.09 3.16-.646 6.91 1.798-.618 3.843-1.011 4.966-.187.382.28.992.945.79 2.25-.612 3.944-7.326 7.179-8.09 7.535a1.067 1.067 0 0 1-.448.099zM97.123 423.91c-.847 0-9.665-.151-15.233-6.275-3.49-3.839-4.904-9.148-4.203-15.782a1.055 1.055 0 0 1 1.168-.944c.583.061 1.006.584.944 1.168-.634 6.004.598 10.757 3.662 14.128 5.095 5.604 13.623 5.596 13.692 5.58h.011a1.062 1.062 0 0 1 .011 2.125h-.052zM475.683 77.635c-.166 0-.261-.001-.272-.002a1.061 1.061 0 0 1-.923-1.185 1.06 1.06 0 0 1 1.185-.923c.889.064 7.321-.24 10.526-.592-2.024-1.441-5.928-3.93-9.547-6.127a1.061 1.061 0 1 1 1.102-1.816c12.384 7.514 12.139 8.013 11.652 9.009-.733 1.502-11.831 1.636-13.723 1.636z" style="" fill="#241726" data-original="#241726" class=""></path><path d="M462.702 66.312s12.105-11.346 16.328-3.23c5.85 11.242-11.302 37.469-32.337 26.85-21.035-10.62-14.219-29.728-14.219-29.728l10.742 6.297s-.938-11.672 4.07-15.787c5.007-4.115 6.062 4.663 6.062 4.663s4.399-16.228 9.494-12.026-.14 22.961-.14 22.961z" style="" fill="#b1739a" data-original="#b1739a" class=""></path><path d="M472.633 72.389c-.384 0-.751-.134-1.066-.392-1.83-1.503-1.118-5.664-.857-6.904a1.063 1.063 0 0 1 2.08.439c-.35 1.666-.416 3.769-.052 4.568.613-.636 1.667-2.636 2.4-4.614.204-.55.811-.833 1.365-.627.55.203.831.814.627 1.364-.769 2.079-2.318 5.636-4.042 6.103a1.72 1.72 0 0 1-.455.063zM457.127 71.983a1.064 1.064 0 0 1-1.046-1.258c.868-4.639 1.456-10.149 1.047-11.566-.666.453-2.611 3.019-4.161 5.778-.226.404-.684.62-1.143.519a1.061 1.061 0 0 1-.84-.933c-.252-2.5-1.016-5.116-1.585-5.461-.011.018-.079.055-.179.142-1.639 1.414-1.721 6.261-1.388 8.984a1.061 1.061 0 0 1-.925 1.184 1.055 1.055 0 0 1-1.183-.924c-.103-.836-.914-8.245 2.108-10.852 1.003-.864 1.89-.697 2.328-.522 1.296.517 2.043 2.459 2.469 4.31 2.261-3.456 4.113-4.873 5.519-4.205.599.282 2.42 1.144.025 13.936a1.068 1.068 0 0 1-1.046.868zM458.278 89.243a15.72 15.72 0 0 1-2.818-.255c-8.379-1.524-13.216-9.316-13.417-9.647a1.062 1.062 0 0 1 1.814-1.107c.045.073 4.564 7.322 11.999 8.666 4.482.81 9.157-.662 13.909-4.375a1.062 1.062 0 1 1 1.307 1.675c-4.293 3.354-8.585 5.043-12.794 5.043z" style="" fill="#241726" data-original="#241726" class=""></path><circle cx="70.613" cy="87.145" r="35.06" style="" fill="#fdd100" data-original="#e6b300" class="" opacity="1"></circle><path d="m54.63 68.87 10.047 23.01" style="" fill="#ffffff" data-original="#ffffff" class=""></path><path d="M64.678 92.942c-.41 0-.8-.238-.974-.637l-10.046-23.01a1.061 1.061 0 0 1 .548-1.399 1.06 1.06 0 0 1 1.399.548l10.046 23.01a1.061 1.061 0 0 1-.973 1.488zM76.345 87.757c-.408 0-.797-.236-.972-.632L65.326 64.438a1.062 1.062 0 1 1 1.943-.861l10.046 22.687a1.062 1.062 0 0 1-.97 1.493z" style="" fill="#241726" data-original="#241726" class=""></path><path d="M71.822 107.874c-10.487 0-17.454-11.652-17.784-12.215a1.062 1.062 0 1 1 1.833-1.076c.083.143 8.482 14.172 19.827 10.544 3.527-1.126 6.032-3.189 7.447-6.134 3.351-6.974-.301-16.683-.338-16.78a1.061 1.061 0 1 1 1.984-.762c.166.433 4.013 10.671.27 18.462-1.678 3.492-4.611 5.927-8.717 7.239-1.568.501-3.08.722-4.522.722zM363.961 57.941c-.541 0-1.361-.176-2.203-1.018a1.062 1.062 0 1 1 1.502-1.502c.181.181.448.395.7.395.324 0 .764-.356 1.174-.952a1.061 1.061 0 1 1 1.749 1.207c-1.066 1.546-2.177 1.87-2.922 1.87zm-3.34-4.462c-.48 0-.916-.328-1.032-.817a11.462 11.462 0 0 1-.305-2.636c0-.648.053-1.319.158-1.992a1.063 1.063 0 0 1 2.1.328 10.793 10.793 0 0 0-.133 1.663c.001.739.084 1.461.247 2.146a1.062 1.062 0 0 1-1.035 1.308zm58.238-.434c-.462 0-.887-.304-1.02-.77-.176-.614-.623-1.903-1.631-3.622a1.062 1.062 0 1 1 1.833-1.075c1.071 1.825 1.593 3.243 1.841 4.112a1.062 1.062 0 0 1-1.023 1.355zm-51.23-.422a1.062 1.062 0 0 1-1.031-1.326c.312-1.219.536-2.572.667-4.021a1.064 1.064 0 0 1 2.117.191 27.733 27.733 0 0 1-.725 4.358c-.122.48-.555.798-1.028.798zm-119.772-4.219c-.41 0-.8-.239-.974-.638-.028-.064-.698-1.609-1.456-4.134a1.063 1.063 0 0 1 2.036-.61c.718 2.39 1.362 3.88 1.368 3.895a1.065 1.065 0 0 1-.974 1.487zm166.836-2.702a1.06 1.06 0 0 1-.826-.393 37.08 37.08 0 0 0-2.782-3.048 1.062 1.062 0 1 1 1.49-1.514 38.762 38.762 0 0 1 2.941 3.225 1.061 1.061 0 0 1-.823 1.73zm-52.93-.482a1.063 1.063 0 0 1-.962-1.512 22.087 22.087 0 0 1 2.306-3.817 1.063 1.063 0 0 1 1.704 1.27 19.774 19.774 0 0 0-2.084 3.446 1.063 1.063 0 0 1-.964.613zm6.676-1.032a1.06 1.06 0 0 1-1.06-1.029 38.08 38.08 0 0 0-.359-4.117 1.072 1.072 0 0 1 .149-.711 1.063 1.063 0 0 1-1.137-1.748c.296-.285.598-.566.908-.841a1.063 1.063 0 0 1-.721-.756 37.984 37.984 0 0 0-1.23-3.945 1.062 1.062 0 1 1 1.99-.742 39.956 39.956 0 0 1 1.301 4.167c.01.044.019.087.024.131.361-.285.728-.564 1.103-.835a1.064 1.064 0 0 1 1.245 1.723 28.96 28.96 0 0 0-2.9 2.398 1.063 1.063 0 0 1 1.372.864c.206 1.454.333 2.916.378 4.349a1.062 1.062 0 0 1-1.028 1.095c-.012-.003-.023-.003-.035-.003zm-123.052-3.916c-.491 0-.932-.342-1.039-.841a49.338 49.338 0 0 1-.718-4.284 1.064 1.064 0 0 1 2.111-.257 46.61 46.61 0 0 0 .687 4.099 1.065 1.065 0 0 1-1.041 1.283zm163.28-.541a1.05 1.05 0 0 1-.674-.243 57.273 57.273 0 0 0-3.316-2.525 1.062 1.062 0 1 1 1.227-1.735 58.41 58.41 0 0 1 3.44 2.621 1.06 1.06 0 0 1-.677 1.882zm-106.233-1.617c-.645 0-1.297-.205-1.937-.611a1.062 1.062 0 1 1 1.137-1.795c.96.61 1.655-.067 2.052-.74a1.063 1.063 0 0 1 1.828 1.084c-1.009 1.704-2.232 2.062-3.08 2.062zm99.313-3.298c-.191 0-.384-.051-.559-.16a80.093 80.093 0 0 0-3.274-1.92l-.334-.182a1.06 1.06 0 0 1-.44-1.436 1.059 1.059 0 0 1 1.436-.44l.371.201a82.103 82.103 0 0 1 3.362 1.971 1.062 1.062 0 0 1-.562 1.966zm-103.508-.244c-.394 0-.773-.22-.957-.599-.583-1.199-.879-2.549-.88-4.012 0-.215.006-.431.019-.646a1.062 1.062 0 1 1 2.121.124c-.01.175-.015.35-.015.522.001 1.138.225 2.177.666 3.086a1.062 1.062 0 0 1-.954 1.525zm75.392-1.143a1.064 1.064 0 0 1-.503-1.999 32.24 32.24 0 0 1 4.002-1.805 1.062 1.062 0 1 1 .738 1.992 30.067 30.067 0 0 0-3.736 1.687c-.16.084-.332.125-.501.125zm-67.793-.896a1.062 1.062 0 0 1-1.053-1.208c.128-.921.193-1.919.193-2.964.001-.357-.007-.72-.022-1.088a1.062 1.062 0 0 1 1.019-1.104c.548-.056 1.08.432 1.104 1.019.017.399.025.792.024 1.177 0 1.14-.072 2.236-.214 3.254a1.063 1.063 0 0 1-1.051.914zm-61.456-.692c-.577 0-1.05-.461-1.062-1.04l-.007-.761c0-1.235.06-2.451.178-3.616.06-.582.562-.989 1.165-.949.583.06 1.008.581.949 1.165a33.511 33.511 0 0 0-.168 3.4l.007.715a1.062 1.062 0 0 1-1.04 1.085l-.022.001zm149.786-.815c-.107 0-.216-.016-.323-.05a22.204 22.204 0 0 0-3.954-.872 1.063 1.063 0 0 1-.92-1.188 1.076 1.076 0 0 1 1.188-.92 24.35 24.35 0 0 1 4.332.955 1.064 1.064 0 0 1-.323 2.075zm-12.593-.525a1.062 1.062 0 0 1-.219-2.102 27.98 27.98 0 0 1 4.375-.57 1.063 1.063 0 0 1 .103 2.123 25.626 25.626 0 0 0-4.039.526 1.028 1.028 0 0 1-.22.023zm-17.3-2.657c-.387 0-.759-.212-.947-.579a35.741 35.741 0 0 0-2.084-3.558 1.06 1.06 0 0 1 .293-1.473 1.06 1.06 0 0 1 1.473.293 37.641 37.641 0 0 1 2.211 3.771 1.063 1.063 0 0 1-.946 1.546zm-65.834-1.525a1.062 1.062 0 0 1-.989-1.451 21.87 21.87 0 0 1 2.068-3.952c.321-.49.979-.628 1.47-.308.492.321.63.979.308 1.47a19.87 19.87 0 0 0-1.869 3.566 1.059 1.059 0 0 1-.988.675zm7.098-2.251c-.504 0-.951-.359-1.045-.873a30.727 30.727 0 0 0-1.002-3.982 1.142 1.142 0 0 1-.03-.111 1.062 1.062 0 0 1-1.241-1.672 33.914 33.914 0 0 1 3.147-3.058 1.063 1.063 0 0 1 1.38 1.616 32.06 32.06 0 0 0-2.003 1.862c.35.082.649.339.769.707.451 1.39.811 2.823 1.073 4.258a1.064 1.064 0 0 1-1.048 1.253zm-60.271-.657a1.062 1.062 0 0 1-1.032-1.318c.36-1.454.834-2.864 1.407-4.189a1.06 1.06 0 0 1 1.396-.554c.538.233.786.858.554 1.397a24.73 24.73 0 0 0-1.295 3.856c-.12.486-.554.808-1.03.808zm114.293-2.615a1.06 1.06 0 0 1-.806-.37 34.466 34.466 0 0 0-2.865-2.959 1.061 1.061 0 1 1 1.436-1.566 36.638 36.638 0 0 1 3.041 3.142 1.063 1.063 0 0 1-.806 1.753zm-56.646-4.787c-.393 0-.771-.219-.956-.596a26.262 26.262 0 0 0-2.068-3.518 1.063 1.063 0 0 1 1.74-1.219 28.501 28.501 0 0 1 2.236 3.803 1.063 1.063 0 0 1-.952 1.53zm-54.272-.346a1.062 1.062 0 0 1-.882-1.652 24.338 24.338 0 0 1 2.792-3.446 1.062 1.062 0 1 1 1.521 1.483 22.131 22.131 0 0 0-2.547 3.143 1.06 1.06 0 0 1-.884.472zm104.674-.599c-.216 0-.433-.065-.621-.201a37.936 37.936 0 0 0-3.476-2.231 1.061 1.061 0 1 1 1.05-1.846 40.071 40.071 0 0 1 3.671 2.355c.475.343.582 1.008.239 1.484a1.065 1.065 0 0 1-.863.439zm-43.87-1.382a1.064 1.064 0 0 1-.591-1.946 38.852 38.852 0 0 1 3.766-2.214 1.063 1.063 0 1 1 .971 1.891 36.342 36.342 0 0 0-3.557 2.092 1.079 1.079 0 0 1-.589.177zm36.502-2.818c-.143 0-.288-.029-.428-.091a42.072 42.072 0 0 0-3.866-1.486 1.063 1.063 0 0 1 .661-2.019c1.359.445 2.726.97 4.063 1.563a1.063 1.063 0 0 1-.43 2.033zM316.99 9.803a1.063 1.063 0 0 1-.377-2.057 38.406 38.406 0 0 1 4.168-1.311 1.065 1.065 0 0 1 1.291.77 1.064 1.064 0 0 1-.77 1.291 35.959 35.959 0 0 0-3.935 1.239 1.085 1.085 0 0 1-.377.068zm-62.473-.208a1.064 1.064 0 0 1-.628-1.921 30.503 30.503 0 0 1 3.733-2.321 1.063 1.063 0 0 1 .992 1.88 28.309 28.309 0 0 0-3.472 2.157 1.055 1.055 0 0 1-.625.205zm43.521-.499a1.06 1.06 0 0 1-.751-.311 21.619 21.619 0 0 0-3.112-2.576 1.06 1.06 0 0 1-.282-1.475 1.06 1.06 0 0 1 1.475-.282 23.658 23.658 0 0 1 3.421 2.831 1.062 1.062 0 0 1-.751 1.813zm39.85-.864a1.06 1.06 0 0 1-.222-.023 37.302 37.302 0 0 0-4.081-.635 1.061 1.061 0 0 1-.953-1.161 1.055 1.055 0 0 1 1.161-.953c1.431.141 2.882.366 4.315.67.574.122.94.686.819 1.261a1.064 1.064 0 0 1-1.039.841zm-12.678-.509a1.063 1.063 0 0 1-.14-2.115 37.503 37.503 0 0 1 4.359-.326c.536-.096 1.069.459 1.079 1.046a1.063 1.063 0 0 1-1.046 1.079 35.467 35.467 0 0 0-4.11.307 1.128 1.128 0 0 1-.142.009zm-63.222-2.11a1.064 1.064 0 0 1-.379-2.056 44.356 44.356 0 0 1 4.137-1.34 1.059 1.059 0 0 1 1.304.746 1.06 1.06 0 0 1-.746 1.304 42.336 42.336 0 0 0-3.937 1.276c-.125.048-.254.07-.379.07zm29.065-1.259c-.141 0-.283-.028-.421-.087a23.12 23.12 0 0 0-3.848-1.264 1.063 1.063 0 0 1-.792-1.277c.134-.573.708-.92 1.277-.792a25.16 25.16 0 0 1 4.205 1.382 1.063 1.063 0 0 1-.421 2.038zm-20.891-.994a1.063 1.063 0 0 1-.195-2.106 64.389 64.389 0 0 1 4.268-.649 1.063 1.063 0 0 1 .251 2.111c-1.417.168-2.805.38-4.127.627a1.2 1.2 0 0 1-.197.017zm12.675-.97c-.027 0-.055-.001-.082-.003a32.274 32.274 0 0 0-4.109-.046c-.588.013-1.087-.421-1.116-1.006a1.063 1.063 0 0 1 1.006-1.116 34.458 34.458 0 0 1 4.38.05 1.062 1.062 0 0 1-.079 2.121zM273.422 511.999c-.431 0-.86-.006-1.287-.015a1.062 1.062 0 0 1-1.04-1.085c.012-.585.515-1.019 1.085-1.04.472.01.942.01 1.429.015.931 0 1.843-.023 2.74-.068.581-.066 1.084.419 1.116 1.004.03.587-.42 1.087-1.006 1.116-.993.054-1.989.079-3.037.073zm-5.501-.251c-.032 0-.064-.002-.098-.004a56.903 56.903 0 0 1-4.292-.556 1.061 1.061 0 0 1-.868-1.226 1.06 1.06 0 0 1 1.225-.869 53.18 53.18 0 0 0 4.128.535 1.062 1.062 0 0 1-.095 2.12zm12.712-.201a1.063 1.063 0 0 1-.138-2.116 46.313 46.313 0 0 0 4.089-.72 1.07 1.07 0 0 1 1.269.807 1.063 1.063 0 0 1-.806 1.268 49.74 49.74 0 0 1-4.274.753 1.116 1.116 0 0 1-.14.008zm-21.072-1.237c-.09 0-.181-.01-.272-.035a42.341 42.341 0 0 1-4.149-1.318 1.06 1.06 0 0 1-.62-1.367 1.055 1.055 0 0 1 1.367-.62c1.255.471 2.582.892 3.944 1.251a1.063 1.063 0 0 1-.27 2.089zm29.352-.616a1.063 1.063 0 0 1-.328-2.073 41.113 41.113 0 0 0 3.869-1.471 1.063 1.063 0 0 1 .855 1.947 43.645 43.645 0 0 1-4.068 1.546 1.11 1.11 0 0 1-.328.051zm-37.285-2.378c-.163 0-.328-.037-.482-.116a35.075 35.075 0 0 1-3.768-2.229 1.06 1.06 0 1 1 1.195-1.755 33.328 33.328 0 0 0 3.54 2.092c.523.268.729.907.463 1.43a1.067 1.067 0 0 1-.948.578zm45.048-1.036a1.063 1.063 0 0 1-.528-1.985 37.596 37.596 0 0 0 3.469-2.239 1.062 1.062 0 1 1 1.25 1.718 39.732 39.732 0 0 1-3.665 2.368 1.074 1.074 0 0 1-.526.138zm-52.044-3.739c-.253 0-.507-.091-.711-.274a30.836 30.836 0 0 1-3.051-3.163 1.061 1.061 0 1 1 1.631-1.361 29.007 29.007 0 0 0 2.842 2.946 1.062 1.062 0 0 1-.711 1.852zm58.899-1.25a1.063 1.063 0 0 1-.718-1.845 35.089 35.089 0 0 0 2.871-2.958 1.063 1.063 0 0 1 1.61 1.388 37.182 37.182 0 0 1-3.045 3.136 1.063 1.063 0 0 1-.718.279zm-89.945-3.421a1.062 1.062 0 0 1-.009-2.125 56.934 56.934 0 0 0 4.163-.188c.596-.074 1.098.386 1.146.97a1.06 1.06 0 0 1-.97 1.146 58.41 58.41 0 0 1-4.32.196l-.01.001zm-4.247-.11-.074-.002a42.054 42.054 0 0 1-4.324-.524 1.064 1.064 0 0 1 .367-2.094 39.44 39.44 0 0 0 4.102.497 1.064 1.064 0 0 1-.071 2.123zm12.702-.603a1.062 1.062 0 0 1-.173-2.11 43.727 43.727 0 0 0 4.052-.871 1.068 1.068 0 0 1 1.3.754 1.064 1.064 0 0 1-.754 1.3 46.068 46.068 0 0 1-4.249.912.966.966 0 0 1-.176.015zm-21.051-.864c-.098 0-.197-.013-.296-.042a39.925 39.925 0 0 1-4.117-1.446 1.063 1.063 0 0 1 .815-1.963c1.266.526 2.575.986 3.893 1.367a1.064 1.064 0 0 1-.295 2.084zm38.224-.257c-.359 0-.709-.182-.909-.51a29.43 29.43 0 0 1-2.002-3.922 1.063 1.063 0 0 1 .421-1.315c-.137-.432.013-.92.404-1.193a29.491 29.491 0 0 0 3.188-2.573 1.063 1.063 0 0 1 1.448 1.554 31.54 31.54 0 0 1-3.419 2.76c-.016.011-.031.022-.048.031a27.517 27.517 0 0 0 1.823 3.554 1.063 1.063 0 0 1-.906 1.614zm-8.981-1.069a1.064 1.064 0 0 1-.379-2.056 35.467 35.467 0 0 0 3.76-1.688 1.063 1.063 0 0 1 .984 1.884 37.75 37.75 0 0 1-3.986 1.79 1.05 1.05 0 0 1-.379.07zm78.832-.098a1.062 1.062 0 0 1-.88-1.655 33.602 33.602 0 0 0 2.084-3.549 1.056 1.056 0 0 1 1.428-.467c.524.265.733.905.467 1.428a35.854 35.854 0 0 1-2.215 3.773c-.206.305-.542.47-.884.47zm-115.905-1.831c-.173 0-.35-.043-.513-.133a39.15 39.15 0 0 1-3.696-2.322 1.065 1.065 0 0 1-.253-1.482c.34-.48 1.003-.59 1.482-.253 1.129.8 2.304 1.539 3.494 2.197.514.283.7.93.416 1.443-.193.352-.555.55-.93.55zm-38.872-2.513a1.063 1.063 0 0 1-.063-2.123 27.448 27.448 0 0 0 4.045-.551 1.055 1.055 0 0 1 1.261.817 1.063 1.063 0 0 1-.817 1.261 29.456 29.456 0 0 1-4.426.596zm-4.242-.057a.957.957 0 0 1-.092-.004 32.087 32.087 0 0 1-4.339-.68 1.063 1.063 0 0 1 .471-2.073c1.348.306 2.711.52 4.051.636a1.061 1.061 0 0 1-.091 2.121zm12.519-1.702a1.062 1.062 0 0 1-.369-2.058 30.145 30.145 0 0 0 3.739-1.69 1.062 1.062 0 1 1 1.002 1.874 32.305 32.305 0 0 1-4.003 1.808 1.057 1.057 0 0 1-.369.066zm-20.807-.084c-.108 0-.218-.017-.326-.051a44.05 44.05 0 0 1-4.071-1.532 1.063 1.063 0 0 1 .849-1.949 42.017 42.017 0 0 0 3.874 1.458c.558.181.865.779.686 1.337-.146.45-.563.737-1.012.737zm94.19-.456c-.477 0-.911-.324-1.03-.808a27.305 27.305 0 0 1-.712-4.36 1.062 1.062 0 1 1 2.118-.17c.107 1.338.328 2.691.656 4.021a1.061 1.061 0 0 1-1.032 1.317zm-49.708-.088c-.251 0-.502-.088-.704-.268a41.134 41.134 0 0 1-3.105-3.062 1.061 1.061 0 1 1 1.568-1.432 39.168 39.168 0 0 0 2.946 2.904 1.062 1.062 0 0 1-.705 1.858zm126.656-.829a1.062 1.062 0 0 1-1-1.42 31.645 31.645 0 0 0 1.127-3.948 1.056 1.056 0 0 1 1.262-.815c.574.123.939.689.815 1.262a33.554 33.554 0 0 1-1.204 4.218 1.063 1.063 0 0 1-1 .703zm-178.901-2.035c-.182 0-.365-.047-.533-.144a32.691 32.691 0 0 1-3.638-2.451 1.063 1.063 0 0 1 1.305-1.677 30.832 30.832 0 0 0 3.401 2.291 1.062 1.062 0 0 1-.535 1.981zm109.925-.028a1.063 1.063 0 0 1-.832-1.722 24.546 24.546 0 0 0 2.259-3.384 1.063 1.063 0 0 1 1.861 1.025 26.755 26.755 0 0 1-2.454 3.679 1.063 1.063 0 0 1-.834.402zm-73.871-.47a1.062 1.062 0 0 1-.615-1.929 36.689 36.689 0 0 0 3.224-2.578 1.063 1.063 0 0 1 1.417 1.583 38.635 38.635 0 0 1-3.412 2.728 1.051 1.051 0 0 1-.614.196zm10.472-2.905a1.06 1.06 0 0 1-.857-.433 41.701 41.701 0 0 1-2.089-3.128c-.137.155-.274.309-.412.462a1.063 1.063 0 0 1-1.577-1.423 41.426 41.426 0 0 0 2.618-3.212 1.063 1.063 0 0 1 1.712 1.258c-.295.402-.597.799-.907 1.192.034.043.066.088.095.137a38.777 38.777 0 0 0 2.271 3.456 1.063 1.063 0 0 1-.854 1.691zm-53.189-1.813c-.281 0-.561-.111-.77-.331a28.202 28.202 0 0 1-2.779-3.423 1.06 1.06 0 1 1 1.749-1.205 26.145 26.145 0 0 0 2.569 3.165 1.06 1.06 0 0 1-.769 1.794zm107.963-.267a1.061 1.061 0 0 1-1.058-1.166c.15-1.531.449-3.004.886-4.377a1.064 1.064 0 0 1 2.025.645 19.148 19.148 0 0 0-.797 3.939 1.062 1.062 0 0 1-1.056.959zm79.382-.768-.083-.003a1.062 1.062 0 0 1-.977-1.141c.057-.74.085-1.48.084-2.217 0-.628-.02-1.252-.061-1.876a1.064 1.064 0 0 1 .991-1.13c.585-.022 1.09.405 1.13.991.044.669.065 1.342.065 2.014.001.791-.029 1.586-.09 2.382-.043.557-.509.98-1.059.98zm-66.703-1.197a1.064 1.064 0 0 1-1.012-1.388c.438-1.355.692-2.664.757-3.894a1.058 1.058 0 0 1 1.118-1.004 1.064 1.064 0 0 1 1.004 1.118c-.076 1.411-.364 2.902-.857 4.431a1.06 1.06 0 0 1-1.01.737zm-71.72-3.29c-.409 0-.798-.237-.973-.633a35.041 35.041 0 0 1-1.52-4.111 1.061 1.061 0 0 1 .714-1.322c.57-.17 1.155.154 1.322.714a32.84 32.84 0 0 0 1.429 3.86 1.064 1.064 0 0 1-.972 1.492zm-53.723-1.443c-.396 0-.776-.222-.959-.603a30.58 30.58 0 0 1-1.609-4.093 1.062 1.062 0 1 1 2.027-.635 28.677 28.677 0 0 0 1.497 3.809 1.062 1.062 0 0 1-.956 1.522zm58.866-.815a1.065 1.065 0 0 1-.915-1.601 37.23 37.23 0 0 0 1.896-3.671 1.062 1.062 0 1 1 1.94.866 39.31 39.31 0 0 1-2.003 3.882 1.065 1.065 0 0 1-.918.524zm56.539-.48a1.063 1.063 0 0 1-.886-1.647c.901-1.363 1.977-2.487 3.198-3.339a1.064 1.064 0 0 1 1.216 1.744c-1 .697-1.888 1.628-2.639 2.766a1.068 1.068 0 0 1-.889.476zm76.171-1.223c-.489 0-.929-.339-1.038-.836a26.582 26.582 0 0 0-1.17-3.909 1.062 1.062 0 1 1 1.982-.766 29.048 29.048 0 0 1 1.266 4.223 1.064 1.064 0 0 1-1.04 1.288zm-65.991-1.065c-.396 0-.777-.223-.96-.604-.512-1.071-1.304-1.613-2.356-1.614a1.07 1.07 0 0 1-1.071-1.062 1.056 1.056 0 0 1 1.054-1.062c1.904.001 3.421 1.003 4.29 2.822a1.063 1.063 0 0 1-.957 1.52zm-74.248-3.107c-.524 0-.979-.387-1.052-.92a22.34 22.34 0 0 1-.21-2.98c0-.509.02-1.006.059-1.489a1.063 1.063 0 0 1 2.118.174c-.035.426-.053.865-.053 1.315 0 .855.064 1.761.191 2.695a1.062 1.062 0 0 1-1.053 1.205zm-53.895-1.388c-.506 0-.955-.362-1.045-.878a39.112 39.112 0 0 1-.513-4.338 1.064 1.064 0 0 1 .994-1.127c.592-.023 1.09.408 1.127.994.087 1.398.25 2.777.483 4.101a1.06 1.06 0 0 1-1.046 1.248zm64.844-.501a1.062 1.062 0 0 1-1.021-1.356c.409-1.421.655-2.748.728-3.945.037-.585.55-1.016 1.126-.995.586.036 1.031.541.995 1.126-.084 1.351-.355 2.831-.807 4.401a1.062 1.062 0 0 1-1.021.769zm126.24-1.832c-.366 0-.723-.19-.92-.529a26.645 26.645 0 0 0-2.316-3.361 1.062 1.062 0 1 1 1.652-1.336 28.759 28.759 0 0 1 2.503 3.63 1.064 1.064 0 0 1-.919 1.596zm-136.307-4.619a1.063 1.063 0 0 1-.958-1.519c.749-1.575 1.823-2.783 3.191-3.592a1.064 1.064 0 0 1 1.081 1.831c-.998.589-1.79 1.489-2.353 2.675a1.064 1.064 0 0 1-.961.605zm-55.326-1.517-.039-.001a1.062 1.062 0 0 1-1.023-1.1c.051-1.419.168-2.875.349-4.329a1.062 1.062 0 1 1 2.108.262 48.115 48.115 0 0 0-.334 4.144 1.063 1.063 0 0 1-1.061 1.024zm65.539-.361c-.394 0-.772-.22-.957-.598-.494-1.015-1.306-1.548-2.484-1.63a1.065 1.065 0 0 1-.987-1.134c.042-.586.552-1.002 1.134-.987 1.946.136 3.416 1.111 4.248 2.821a1.063 1.063 0 0 1-.954 1.528zm120.771-.086c-.256 0-.513-.092-.717-.278a29.583 29.583 0 0 0-3.212-2.544 1.06 1.06 0 0 1-.275-1.476 1.06 1.06 0 0 1 1.476-.275 31.715 31.715 0 0 1 3.445 2.727 1.062 1.062 0 0 1-.717 1.846zm-185.268-7.982a1.063 1.063 0 0 1-1.041-1.283c.547-2.59 1.091-4.175 1.114-4.241a1.063 1.063 0 0 1 2.009.694c-.005.016-.527 1.539-1.044 3.987a1.062 1.062 0 0 1-1.038.843zM131.016 194.838a1.064 1.064 0 0 1-.971-1.493c1.958-4.415-1.438-7.716-1.473-7.749a1.063 1.063 0 0 1 1.465-1.539c1.57 1.493 3.998 5.535 1.951 10.15a1.061 1.061 0 0 1-.972.631zM126.057 204.85a1.064 1.064 0 0 1-.971-1.493c1.941-4.378-1.336-7.615-1.476-7.751a1.063 1.063 0 0 1 1.467-1.536c1.57 1.493 3.999 5.534 1.952 10.149a1.061 1.061 0 0 1-.972.631zM135.065 210.82a1.064 1.064 0 0 1-.971-1.493c1.958-4.415-1.438-7.716-1.473-7.749a1.063 1.063 0 0 1 1.465-1.539c1.57 1.493 3.998 5.535 1.951 10.15a1.061 1.061 0 0 1-.972.631zM129.691 220.235a1.064 1.064 0 0 1-.971-1.493c1.94-4.378-1.336-7.615-1.476-7.751a1.063 1.063 0 0 1 1.467-1.536c1.569 1.493 3.998 5.534 1.952 10.149a1.063 1.063 0 0 1-.972.631zM139.609 228.644a1.064 1.064 0 0 1-.971-1.493c1.94-4.378-1.336-7.615-1.476-7.751a1.063 1.063 0 0 1 1.467-1.536c1.569 1.493 3.998 5.534 1.952 10.149a1.063 1.063 0 0 1-.972.631zM132.166 235.07a1.064 1.064 0 0 1-.971-1.493c1.941-4.378-1.336-7.615-1.476-7.751a1.063 1.063 0 0 1 1.467-1.536c1.57 1.492 3.999 5.534 1.952 10.149a1.061 1.061 0 0 1-.972.631zM139.473 243.652a1.064 1.064 0 0 1-.971-1.493c1.94-4.378-1.336-7.615-1.476-7.751a1.063 1.063 0 0 1 1.467-1.536c1.569 1.492 3.998 5.533 1.952 10.149a1.063 1.063 0 0 1-.972.631z" style="" fill="#241726" data-original="#241726" class=""></path><path d="M97.509 133.003S358.956 77.612 361.171 88.69c2.216 11.078 59.823 290.25 59.823 290.25s-252.584 64.254-259.231 57.607-64.254-303.544-64.254-303.544z" style="" fill="#ffffff" data-original="#ffffff" class=""></path><path d="m189.458 330.196 8.863 38.774s159.99-32.465 159.527-39.882l-8.863-35.45 22.156-7.201 12.186 55.945-203.84 49.852-15.51-55.391 25.481-6.647z" style="" fill="#fdd100" data-original="#52afa6" class="" opacity="1"></path><path d="M422.034 378.725c-.576-2.792-57.632-279.295-59.821-290.244-.329-1.647-2.555-2.319-7.682-2.319-3.657 0-8.743.373-14.94 1.043-.254-2.406-.834-4.771-1.846-6.938-2.902-6.218-8.359-9.642-15.366-9.642-7.991 0-13.599 2.159-16.668 6.417-4.473 6.205-1.798 14.452-1.682 14.8.041.123.109.229.186.324a1620.42 1620.42 0 0 0-11.665 1.912c-.334-1.674-.808-3.315-1.523-4.847-2.902-6.217-8.359-9.641-15.366-9.641-7.991 0-13.598 2.159-16.667 6.417-3.896 5.406-2.37 12.356-1.835 14.29-2.551.465-5.114.935-7.69 1.41-.334-1.452-.759-2.878-1.385-4.217-2.902-6.218-8.359-9.642-15.366-9.642-7.991 0-13.599 2.159-16.668 6.417-3.791 5.26-2.45 11.97-1.882 14.109-3.69.711-7.362 1.422-11.008 2.133-.329-1.352-.737-2.681-1.322-3.933-2.902-6.218-8.359-9.642-15.367-9.642-7.99 0-13.598 2.159-16.667 6.417-3.798 5.269-2.445 11.992-1.879 14.12-4.035.808-7.965 1.599-11.783 2.37-.333-1.44-.756-2.854-1.377-4.183-2.902-6.217-8.359-9.641-15.366-9.641-7.991 0-13.598 2.159-16.667 6.417-4.143 5.748-2.157 13.237-1.749 14.588a5448.089 5448.089 0 0 0-23.699 4.942c-.568.12-.934.673-.823 1.242 5.902 30.421 57.861 297.41 64.546 304.093.556.556 1.589.794 3.457.794 27.99 0 247.458-55.748 256.786-58.122.555-.14.898-.687.784-1.244zM306.045 91.17c-.025-.075-2.453-7.553 1.39-12.886 2.647-3.672 7.676-5.534 14.945-5.534 6.134 0 10.908 2.988 13.44 8.415.906 1.94 1.421 4.086 1.643 6.277-8.714.996-19.42 2.527-31.447 4.437.084-.221.11-.467.029-.709zm-45.319-3.931c2.65-3.666 7.675-5.524 14.936-5.524 6.134 0 10.908 2.988 13.44 8.415.63 1.35 1.047 2.81 1.344 4.304a2565.13 2565.13 0 0 0-31.184 5.481c-.356-1.24-2.021-7.853 1.464-12.676zm-42.942 8.259c2.649-3.666 7.675-5.524 14.936-5.524 6.134 0 10.908 2.989 13.441 8.415.545 1.169.919 2.424 1.214 3.706a4602.544 4602.544 0 0 0-31.11 5.876c-.445-1.65-1.802-7.878 1.519-12.473zm-46.245 9.083c2.649-3.666 7.674-5.524 14.935-5.524 6.135 0 10.909 2.989 13.441 8.415.508 1.088.866 2.253 1.157 3.442a6826.677 6826.677 0 0 0-31.054 6.137c-.445-1.656-1.797-7.878 1.521-12.47zm-48.469 21.983c-.025-.075-2.442-7.585 1.398-12.899 2.65-3.666 7.675-5.524 14.936-5.524 6.134 0 10.908 2.988 13.44 8.415.545 1.168.919 2.424 1.214 3.705a8172.635 8172.635 0 0 0-30.985 6.329c-.003-.008 0-.017-.003-.026zm41.398 309.403c-1.465 0-1.912-.17-1.948-.17-.003 0-.003.001-.003.002-4.877-5.629-40.723-183.251-63.766-301.973a7353.793 7353.793 0 0 1 55.698-11.477c.68 5.463-.709 11.308-3.952 15.18-2.002 2.387-5.363 4.853-10.614 4.692-.857-2.654-3.319-4.587-6.259-4.587a6.606 6.606 0 1 0 0 13.212c3.614 0 6.54-2.904 6.596-6.505.034 0 .071.007.105.007 4.706 0 8.788-1.86 11.801-5.456 3.699-4.416 5.257-10.883 4.435-16.971a7037.839 7037.839 0 0 1 44.938-8.929c.762 5.54-.634 11.516-3.931 15.451-1.741 2.079-4.511 4.219-8.658 4.634-.224-3.446-3.061-6.18-6.564-6.18a6.606 6.606 0 1 0 0 13.212c3.059 0 5.608-2.09 6.359-4.912 4.151-.317 7.763-2.133 10.491-5.39 3.751-4.478 5.316-11.066 4.414-17.228a4862.3 4862.3 0 0 1 44.154-8.403c.681 5.464-.709 11.311-3.952 15.183-1.74 2.079-4.511 4.217-8.658 4.632-.225-3.445-3.061-6.179-6.563-6.179a6.606 6.606 0 0 0-6.606 6.607 6.606 6.606 0 0 0 6.606 6.606c3.059 0 5.607-2.09 6.359-4.912 4.152-.317 7.762-2.133 10.491-5.391 3.694-4.408 5.251-10.86 4.438-16.939 14.177-2.617 28.028-5.09 40.876-7.26.508 5.287-.876 10.846-4.001 14.576-1.741 2.076-4.51 4.215-8.658 4.631-.225-3.445-3.061-6.178-6.563-6.178a6.607 6.607 0 0 0 0 13.213c3.059 0 5.607-2.089 6.359-4.911 4.152-.317 7.762-2.134 10.491-5.391 3.563-4.254 5.113-10.408 4.49-16.296 17.453-2.927 32.939-5.266 44.729-6.614.022 4.655-1.398 9.319-4.13 12.579-2.077 2.479-5.62 5.041-11.216 4.663-.575-3.063-3.254-5.383-6.483-5.383a6.607 6.607 0 1 0 0 13.212c3.353 0 6.092-2.507 6.519-5.742.335.018.68.071 1.009.071 4.705 0 8.787-1.859 11.8-5.455 3.139-3.747 4.749-8.972 4.663-14.188 6.131-.662 11.149-1.027 14.767-1.027 4.814.001 5.574.662 5.599.611 2.124 10.622 55.836 270.934 59.617 289.262-16.372 4.156-228.491 57.811-255.279 57.811z" style="" fill="#241726" data-original="#241726" class=""></path><path d="m158.651 237.951 5.327 32.423s95.273 75.332 110.782 73.116c15.51-2.216 163.958-172.821 163.958-179.468 0-6.647.372-28.594.372-28.594L269.626 316.852l-110.975-78.901z" style="" fill="#ffffff" data-original="#ffffff" class=""></path><path d="M439.489 134.444a1.05 1.05 0 0 0-1.174.259L269.484 315.447l-110.218-78.362a1.064 1.064 0 0 0-1.664 1.039l5.327 32.423c.043.261.182.497.389.661 3.79 2.997 93.021 73.394 110.718 73.394.258 0 .492-.022.722-.048h.001l.01-.001c.045-.005.098-.003.142-.009.007-.001.017-.006.025-.007.011-.002.022-.001.034-.003.018-.004.031-.016.048-.02 10.115-1.778 65.099-62.354 88.33-88.387 30.824-34.54 76.433-87.699 76.433-92.102 0-6.562.368-28.357.372-28.577a1.062 1.062 0 0 0-.664-1.004zm-1.827 29.502c-.749 3.567-33.675 43.486-76.62 91.572-45.078 50.474-77.335 83.131-85.47 86.608l-4.2-21.001a1.062 1.062 0 1 0-2.083.417l4.174 20.869c-17.703-1.372-102.547-67.927-108.502-72.617l-4.846-29.501 108.898 77.424a1.062 1.062 0 0 0 1.391-.141L437.983 138.17c-.099 6.117-.326 20.668-.321 25.776z" style="" fill="#241726" data-original="#241726" class=""></path><path d="M157.331 237.138s24.372-53.176 35.45-53.176 66.469 55.391 66.469 55.391S372.249 82.043 381.112 86.474c8.863 4.431 59.471 48.487 59.471 48.487S281.407 325.764 270.329 321.333c-11.078-4.431-112.998-75.332-112.998-84.195z" style="" fill="#17b26a" data-original="#e17b8d" class="" opacity="1"></path><path d="M296.658 272.831a1.062 1.062 0 0 1-1.061-1.138c.16-2.241 1.795-6.853 6.841-8.259a1.057 1.057 0 0 1 1.308.738 1.06 1.06 0 0 1-.738 1.308c-4.881 1.36-5.289 6.314-5.293 6.364a1.06 1.06 0 0 1-1.057.987zM308.004 270.184a1.062 1.062 0 0 1-1.061-1.138c.16-2.241 1.795-6.853 6.841-8.259a1.06 1.06 0 0 1 1.308.738 1.06 1.06 0 0 1-.738 1.308c-4.881 1.36-5.289 6.314-5.293 6.364a1.06 1.06 0 0 1-1.057.987zM306.837 258.977a1.062 1.062 0 0 1-1.061-1.138c.16-2.241 1.795-6.853 6.84-8.259a1.059 1.059 0 0 1 1.308.738 1.06 1.06 0 0 1-.738 1.308c-4.881 1.36-5.288 6.314-5.292 6.364a1.06 1.06 0 0 1-1.057.987zM317.977 257.058l-.081-.003a1.059 1.059 0 0 1-.979-1.133c.16-2.242 1.795-6.853 6.841-8.258a1.059 1.059 0 0 1 1.308.738 1.06 1.06 0 0 1-.738 1.308c-4.843 1.349-5.277 6.163-5.293 6.367a1.064 1.064 0 0 1-1.058.981zM318.17 243.503a1.062 1.062 0 0 1-1.061-1.138c.16-2.241 1.795-6.853 6.84-8.259a1.06 1.06 0 0 1 1.308.738 1.06 1.06 0 0 1-.738 1.308c-4.881 1.36-5.288 6.314-5.292 6.364a1.06 1.06 0 0 1-1.057.987zM328.276 245.233a1.062 1.062 0 0 1-1.061-1.138c.16-2.241 1.795-6.853 6.841-8.259a1.058 1.058 0 0 1 1.308.738 1.06 1.06 0 0 1-.738 1.308c-4.881 1.36-5.289 6.314-5.293 6.364a1.06 1.06 0 0 1-1.057.987zM330.339 233.661a1.06 1.06 0 0 1-1.06-1.136c.159-2.242 1.794-6.854 6.84-8.259a1.058 1.058 0 0 1 1.308.738 1.06 1.06 0 0 1-.738 1.308c-4.843 1.349-5.276 6.163-5.292 6.367a1.063 1.063 0 0 1-1.058.982z" style="" fill="#241726" data-original="#241726" class=""></path><path d="M319.66 171.659a1.065 1.065 0 0 1-.872-1.67c5.093-7.321 37.474-48.039 38.851-49.768a1.059 1.059 0 0 1 1.492-.17 1.06 1.06 0 0 1 .17 1.492c-.336.423-33.716 42.395-38.768 49.66a1.06 1.06 0 0 1-.873.456zM307.44 187.241a1.064 1.064 0 0 1-.856-1.691l6.093-8.31a1.064 1.064 0 0 1 1.714 1.258l-6.093 8.31a1.064 1.064 0 0 1-.858.433z" style="" fill="#fbfcff" data-original="#fbfcff"></path><path d="M448.071 307.312a1.064 1.064 0 0 1-1.063-1.075l.134-11.411a27.574 27.574 0 0 1-4.634-1.86l-7.539 7.955a1.06 1.06 0 0 1-1.458.08l-9.788-8.296a1.063 1.063 0 0 1-.09-1.536l7.914-8.452a27.322 27.322 0 0 1-3.075-7.273l-10.667-.188a1.063 1.063 0 0 1-1.043-1.022l-.485-12.823a1.061 1.061 0 0 1 .301-.782c.202-.209.473-.363.773-.321l11.41.134a27.692 27.692 0 0 1 1.86-4.634l-7.955-7.539a1.061 1.061 0 0 1-.08-1.458l8.297-9.789a1.063 1.063 0 0 1 1.537-.089l8.452 7.914a27.341 27.341 0 0 1 6.887-2.964l.132-11.257c.007-.582.48-1.05 1.062-1.05h13.265a1.06 1.06 0 0 1 1.062 1.081l-.201 11.385a27.531 27.531 0 0 1 4.76 1.913l7.475-7.984a1.065 1.065 0 0 1 1.492-.058l9.789 8.953a1.063 1.063 0 0 1 .054 1.515l-7.713 8.139a27.355 27.355 0 0 1 2.766 6.539l11.257.132c.582.007 1.05.48 1.05 1.062v13.265c0 .285-.114.558-.318.757-.204.2-.514.276-.764.305l-11.385-.201a27.42 27.42 0 0 1-1.913 4.76l7.985 7.476c.424.397.45 1.062.058 1.492l-8.953 9.788a1.057 1.057 0 0 1-.746.344c-.304.033-.561-.093-.769-.291l-8.139-7.712a27.366 27.366 0 0 1-6.924 2.877l-.189 10.668a1.062 1.062 0 0 1-1.022 1.043l-12.823.485c-.009.003-.022.003-.036.003zm-5.775-16.727c.176 0 .354.044.516.134a25.312 25.312 0 0 0 5.68 2.283c.468.127.791.554.785 1.039l-.13 11.106 10.702-.405.186-10.48c.008-.489.349-.908.825-1.017a25.262 25.262 0 0 0 7.788-3.234c.407-.26.943-.206 1.295.129l7.943 7.526 7.514-8.215-7.815-7.318a1.063 1.063 0 0 1-.201-1.294 25.357 25.357 0 0 0 2.339-5.81 1.082 1.082 0 0 1 1.045-.787l11.121.197v-11.134l-11.018-.129a1.063 1.063 0 0 1-1.02-.809 25.226 25.226 0 0 0-3.14-7.422 1.06 1.06 0 0 1 .129-1.295l7.527-7.943-8.216-7.514-7.316 7.814a1.059 1.059 0 0 1-1.295.201 25.31 25.31 0 0 0-5.81-2.338 1.062 1.062 0 0 1-.787-1.045l.197-11.122h-11.134l-.129 11.018a1.061 1.061 0 0 1-.809 1.019 25.28 25.28 0 0 0-7.744 3.336 1.054 1.054 0 0 1-1.304-.116l-8.235-7.71-6.924 8.171 7.813 7.404c.352.333.434.862.198 1.287a25.44 25.44 0 0 0-2.284 5.683c-.126.467-.536.886-1.038.784l-11.105-.13.405 10.702 10.479.185c.489.008.908.349 1.017.825a25.251 25.251 0 0 0 3.429 8.109c.266.41.218.947-.115 1.304l-7.71 8.234 8.169 6.924 7.405-7.813c.206-.22.487-.334.772-.334z" style="" fill="#241726" data-original="#241726" class=""></path><path d="M455.146 287.636c-10.582 0-19.191-8.609-19.191-19.191 0-10.582 8.609-19.19 19.191-19.19s19.191 8.608 19.191 19.19c.001 10.581-8.609 19.191-19.191 19.191zm0-36.257c-9.41 0-17.066 7.656-17.066 17.065 0 9.41 7.656 17.066 17.066 17.066s17.066-7.656 17.066-17.066c.001-9.409-7.655-17.065-17.066-17.065z" style="" fill="#241726" data-original="#241726" class=""></path><path d="M455.146 276.14c-4.243 0-7.695-3.452-7.695-7.695 0-4.242 3.452-7.694 7.695-7.694s7.695 3.452 7.695 7.694c.001 4.243-3.451 7.695-7.695 7.695zm0-13.265a5.576 5.576 0 0 0-5.57 5.569c0 3.071 2.499 5.57 5.57 5.57s5.57-2.499 5.57-5.57a5.575 5.575 0 0 0-5.57-5.569z" style="" fill="#241726" data-original="#241726" class=""></path><path d="M18.242 331.251s51.23-45.158 53.127-43.261 34.912 31.117 33.015 35.292c-1.897 4.174-48.573 45.538-53.127 42.881-4.554-2.656-36.43-32.635-33.015-34.912z" style="" fill="#fdd100" data-original="#e9b600" class="" opacity="1"></path><path d="M55.613 335.954c-7.25 0-17.785-.447-33.071-1.553-1.573-.114-2.57-.189-2.783-.19a1.065 1.065 0 0 1-1.058-1.067 1.06 1.06 0 0 1 1.059-1.058c.208 0 1.262.074 2.935.195 39.788 2.882 45.806 1.054 46.546.136.863-3.521-.03-32.691-.45-43.627a1.062 1.062 0 0 1 1.021-1.102c.541-.019 1.08.434 1.102 1.021.062 1.617 1.511 39.67.348 44.318-.396 1.585-3.091 2.927-15.649 2.927z" style="" fill="#241726" data-original="#241726" class=""></path><path d="m51.258 367.225-.04-.001a1.063 1.063 0 0 1-1.022-1.101l1.138-30.738c.021-.586.5-1.075 1.101-1.022a1.063 1.063 0 0 1 1.022 1.101l-1.138 30.738a1.062 1.062 0 0 1-1.061 1.023zM104.385 324.344a1.16 1.16 0 0 1-.117-.006c-8.638-.948-31.389-3.409-32.898-3.409a1.061 1.061 0 1 1 0-2.124c1.9 0 29.939 3.072 33.13 3.422a1.063 1.063 0 0 1-.115 2.117z" style="" fill="#241726" data-original="#241726" class=""></path></g></svg>