<svg viewBox="0 0 392 392" fill="none" xmlns="http://www.w3.org/2000/svg">
<g clip-path="url(#clip0_272_2491)">
<mask id="mask0_272_2491" style="mask-type:luminance" maskUnits="userSpaceOnUse" x="0" y="0" width="392" height="392">
<path d="M0 6.10352e-05H392V392H0V6.10352e-05Z" fill="white"/>
</mask>
<g mask="url(#mask0_272_2491)">
<path d="M195.999 49C222.81 49 248.092 51.9691 270.353 57.2183C258.88 27.3375 229.919 6.12505 195.999 6.12505C162.079 6.12505 133.118 27.3375 121.645 57.2183C143.906 51.9691 169.188 49 195.999 49Z" fill="#D1F0E1"/>
<path d="M250.337 53.2582C257.239 54.3768 263.923 55.702 270.355 57.2188C258.882 27.3379 229.92 6.12477 196 6.12477C192.892 6.12477 189.828 6.30928 186.812 6.65611C215.231 9.9215 239.097 28.1472 250.337 53.2582Z" fill="#8BD8B4"/>
<path d="M122.477 55.125C134.476 26.3505 162.876 6.12501 195.999 6.12501C229.122 6.12501 257.522 26.3505 269.522 55.125" stroke="black" stroke-width="4.97778" stroke-miterlimit="10"/>
<path d="M357.699 122.5C357.699 163.093 285.303 196 195.999 196C106.694 196 34.2988 163.093 34.2988 122.5C34.2988 81.9066 106.694 49 195.999 49C285.303 49 357.699 81.9066 357.699 122.5Z" fill="#6E91EF"/>
<path d="M357.699 122.5C357.699 163.093 285.303 196 195.999 196C106.694 196 34.2988 163.093 34.2988 122.5C34.2988 81.9066 106.694 49 195.999 49C285.303 49 357.699 81.9066 357.699 122.5Z" fill="#D1F0E1"/>
<path d="M196 49C192.916 49 189.854 49.0429 186.812 49.121C271.841 51.2862 339.325 83.3092 339.325 122.5C339.325 161.691 271.841 193.714 186.812 195.879C189.854 195.957 192.916 196 196 196C285.305 196 357.7 163.093 357.7 122.5C357.7 81.9066 285.305 49 196 49Z" fill="#8BD8B4"/>
<path d="M91.875 122.5C91.875 129.265 86.3901 134.75 79.625 134.75C72.8599 134.75 67.375 129.265 67.375 122.5C67.375 115.735 72.8599 110.25 79.625 110.25C86.3901 110.25 91.875 115.735 91.875 122.5Z" fill="white"/>
<path d="M208.25 85.75C208.25 92.5151 202.766 98 196 98C189.235 98 183.75 92.5151 183.75 85.75C183.75 78.9849 189.235 73.5 196 73.5C202.766 73.5 208.25 78.9849 208.25 85.75Z" fill="white"/>
<path d="M140.875 98C140.875 104.765 135.39 110.25 128.625 110.25C121.86 110.25 116.375 104.765 116.375 98C116.375 91.2349 121.86 85.75 128.625 85.75C135.39 85.75 140.875 91.2349 140.875 98Z" fill="white"/>
<path d="M300.125 122.5C300.125 129.265 305.609 134.75 312.375 134.75C319.141 134.75 324.625 129.265 324.625 122.5C324.625 115.735 319.141 110.25 312.375 110.25C305.609 110.25 300.125 115.735 300.125 122.5Z" fill="white"/>
<path d="M251.125 98C251.125 104.765 256.609 110.25 263.375 110.25C270.141 110.25 275.625 104.765 275.625 98C275.625 91.2349 270.141 85.75 263.375 85.75C256.609 85.75 251.125 91.2349 251.125 98Z" fill="white"/>
<path d="M122.499 187.985C70.1423 175.82 34.2988 151.062 34.2988 122.5C34.2988 81.9065 106.694 48.9999 195.999 48.9999C285.304 48.9999 357.699 81.9065 357.699 122.5C357.699 151.062 321.855 175.82 269.499 187.985" stroke="black" stroke-width="4.97778" stroke-miterlimit="10"/>
<path d="M281.75 159.25C281.75 179.547 243.358 196 196 196C148.641 196 110.25 179.547 110.25 159.25C110.25 138.953 148.641 122.5 196 122.5C243.358 122.5 281.75 138.953 281.75 159.25Z" fill="#D6D9DD"/>
<path d="M318.5 385.875H73.5L135.814 133.073C151.295 126.535 172.549 122.5 196 122.5C219.451 122.5 240.705 126.535 256.186 133.073L318.5 385.875Z" fill="#FDD100"/>
<path d="M318.497 385.875H300.122L236.254 126.795C243.596 128.472 250.303 130.593 256.183 133.073L318.497 385.875Z" fill="#F5A200"/>
<path d="M195.999 134.75C221.216 134.75 243.889 139.415 259.579 146.841L256.185 133.073C240.704 126.535 219.45 122.5 195.999 122.5C172.548 122.5 151.294 126.535 135.813 133.073L132.42 146.841C148.11 139.415 170.782 134.75 195.999 134.75Z" fill="#F5A200"/>
<path d="M89.3538 321.562L73.5 385.875H318.5L261.88 156.188" stroke="black" stroke-width="4.97778" stroke-miterlimit="10"/>
<path d="M130.121 156.188L99.168 281.75" stroke="black" stroke-width="4.97778" stroke-miterlimit="10"/>
<path d="M110.25 294C110.25 300.765 104.765 306.25 98 306.25C91.2349 306.25 85.75 300.765 85.75 294C85.75 287.235 91.2349 281.75 98 281.75C104.765 281.75 110.25 287.235 110.25 294Z" fill="#F8E868"/>
<path d="M110.25 294C110.25 300.765 104.765 306.25 98 306.25C91.2349 306.25 85.75 300.765 85.75 294C85.75 287.235 91.2349 281.75 98 281.75C104.765 281.75 110.25 287.235 110.25 294Z" stroke="black" stroke-width="4.97778" stroke-miterlimit="10"/>
<path d="M167.624 122.5L146.486 208.25" stroke="black" stroke-width="4.97778" stroke-miterlimit="10"/>
<path d="M223.861 122.5L248.062 220.673" stroke="black" stroke-width="4.97778" stroke-miterlimit="10"/>
<path d="M165.375 232.75H177.625" stroke="white" stroke-width="4.97778" stroke-miterlimit="10"/>
<path d="M189.875 232.75H202.125" stroke="white" stroke-width="4.97778" stroke-miterlimit="10"/>
<path d="M214.375 232.75H226.625" stroke="white" stroke-width="4.97778" stroke-miterlimit="10"/>
<path d="M159.25 251.125V324.625" stroke="black" stroke-width="4.97778" stroke-miterlimit="10"/>
<path d="M159.25 287.875H134.75V251.125" stroke="black" stroke-width="4.97778" stroke-miterlimit="10"/>
<path d="M257.25 251.125V324.625" stroke="black" stroke-width="4.97778" stroke-miterlimit="10"/>
<path d="M257.25 287.875H232.75V251.125" stroke="black" stroke-width="4.97778" stroke-miterlimit="10"/>
<path d="M208.248 318.5H183.748V257.25H208.248V318.5Z" stroke="black" stroke-width="4.97778" stroke-miterlimit="10"/>
<path d="M91.875 122.5C91.875 129.265 86.3901 134.75 79.625 134.75C72.8599 134.75 67.375 129.265 67.375 122.5C67.375 115.735 72.8599 110.25 79.625 110.25C86.3901 110.25 91.875 115.735 91.875 122.5Z" stroke="black" stroke-width="4.97778" stroke-miterlimit="10"/>
<path d="M208.25 85.75C208.25 92.5151 202.766 98 196 98C189.235 98 183.75 92.5151 183.75 85.75C183.75 78.9849 189.235 73.5 196 73.5C202.766 73.5 208.25 78.9849 208.25 85.75Z" stroke="black" stroke-width="4.97778" stroke-miterlimit="10"/>
<path d="M140.875 98C140.875 104.765 135.39 110.25 128.625 110.25C121.86 110.25 116.375 104.765 116.375 98C116.375 91.2349 121.86 85.75 128.625 85.75C135.39 85.75 140.875 91.2349 140.875 98Z" stroke="black" stroke-width="4.97778" stroke-miterlimit="10"/>
<path d="M300.125 122.5C300.125 129.265 305.609 134.75 312.375 134.75C319.141 134.75 324.625 129.265 324.625 122.5C324.625 115.735 319.141 110.25 312.375 110.25C305.609 110.25 300.125 115.735 300.125 122.5Z" stroke="black" stroke-width="4.97778" stroke-miterlimit="10"/>
<path d="M251.125 98C251.125 104.765 256.609 110.25 263.375 110.25C270.141 110.25 275.625 104.765 275.625 98C275.625 91.2349 270.141 85.75 263.375 85.75C256.609 85.75 251.125 91.2349 251.125 98Z" stroke="black" stroke-width="4.97778" stroke-miterlimit="10"/>
<path d="M125.562 180.214C115.909 174.269 110.25 167.043 110.25 159.25C110.25 138.953 148.641 122.5 196 122.5C243.358 122.5 281.75 138.953 281.75 159.25C281.75 167.043 276.09 174.269 266.437 180.214" stroke="black" stroke-width="4.97778" stroke-miterlimit="10"/>
<path d="M343 42.875C343 49.6401 337.516 55.125 330.75 55.125C323.984 55.125 318.5 49.6401 318.5 42.875C318.5 36.1099 323.984 30.625 330.75 30.625C337.516 30.625 343 36.1099 343 42.875Z" fill="#F8E868"/>
<path d="M343 42.875C343 49.6401 337.516 55.125 330.75 55.125C323.984 55.125 318.5 49.6401 318.5 42.875C318.5 36.1099 323.984 30.625 330.75 30.625C337.516 30.625 343 36.1099 343 42.875Z" stroke="black" stroke-width="4.97778" stroke-miterlimit="10"/>
<path d="M85.75 12.25V49" stroke="black" stroke-width="4.97778" stroke-miterlimit="10"/>
<path d="M104.125 30.625H67.375" stroke="black" stroke-width="4.97778" stroke-miterlimit="10"/>
<path d="M330.75 196V232.75" stroke="black" stroke-width="4.97778" stroke-miterlimit="10"/>
<path d="M349.125 214.375H312.375" stroke="black" stroke-width="4.97778" stroke-miterlimit="10"/>
</g>
</g>
<defs>
<clipPath id="clip0_272_2491">
<rect width="392" height="392" fill="white"/>
</clipPath>
</defs>
</svg>
