<svg id="Layer_1" enable-background="new 0 0 170 170" viewBox="0 0 170 170" xmlns="http://www.w3.org/2000/svg"><g id="_x35_7"><g><g><path d="m107.6308517 55.8284149c-.4342804-5.5818596-5.2972488-10.3481064-6.1167984-16.375-.283844-2.0822105-.0666199-4.1781921-.8562012-5.8495979-.9398041-1.9899006-3.1703033-3.1334019-5.5679016-4.2241001-.4806976-.2186012-.6937027-.7857018-.4746017-1.2667999.219101-.4807014.7871017-.6937008 1.2667999-.4746017 2.7340012 1.2434006 5.2891006 2.5728016 6.5059052 5.1485004.9834366 2.0834923.7472382 4.3927002 1.0215988 6.408699.7655945 5.6249046 5.6514053 10.3512115 6.1288986 16.4843025.0411072.5268974-.3526993.9869995-.8796005 1.0280991-.5317535.0400924-.9871139-.3562661-1.0280991-.8795014z" fill="#ffde9b"/></g></g><g><path d="m150.4023438 147.2771149c-1.0809937 6.6486969-4.8309937 11.661499-11.2691956 15.0097046-1.855896.9757996-4.1326904.8132019-5.7973022-.459198-11.8624878-9.1691742-21.2324219-8.2397156-29.8566971-14.6461029-2.9178009-2.2003021-5.3572998-5.2425079-7.6053009-8.1315002-1.2175293 1.5219116-2.7816315 1.3125763-3.9891891.3061981.258194 1.8462982-.7941055 3.8074036-2.4873047 4.6109924-1.205719.5956726-2.3453293.3117371-2.7934036-.210495-.5069962-.4974976-.7365952-1.2435913-.9470978-1.8941956-.8450623-2.5499115-.7589798-4.3276215-.8227005-5.1275024-.7939987.4113007-1.6741028.6504974-2.5541992.707901-1.8559036.0955963-2.9178009-1.626297-3.2334976-3.2335052-.4304047-2.2480927-1.1671066-4.3909912-1.6550064-6.6485977-.5643005-2.6307983-.4208984-5.9407959 1.3488998-7.968895-.8610001 1.1576004-2.5828934 1.4253998-3.8934937.8610001-2.8186798-1.2255173-3.2330246-4.5540009-3.290802-7.4331055-.0573959-2.5924988-.3443985-5.1083984.5548019-7.528801 1.7793961-4.8500977 4.0369949-9.5185928 6.6963959-13.9381943.8132019-1.3393021 1.6932983-2.6977997 2.9943008-3.5587006 1.7125015-1.1384048 3.2814026-.6026993 5.0798035-.277504 2.2097931.4113998 4.2665939.8992996 6.3998947 1.597702 13.6900482 4.510849 17.5998306 2.4451141 22.3281021 6.2276001 4.7544022 3.8075027 7.0026016 9.9300003 8.9349976 15.4975967 2.334198 6.7157059 6.2468948 12.7999039 10.8483047 18.2145004 4.0178986 4.7066956 8.5428009 8.9253998 13.2111969 12.9911957.0191956.019104.0381927.0383148.0574036.0574036 1.396698 1.2436067 2.0375976 3.1282045 1.7410889 4.9745027z" fill="#f3b2a1"/></g><g><path d="m78.6202393 119.3132095c3.0673828-3.1518555 4.9516602-7.4785156 5.1694336-11.8710938.0157776-.3422394.5150604-.2985077.4990234.0244141-.2231445 4.5126953-2.1586914 8.9575195-5.3100586 12.1953125-.2297821.2366791-.5894547-.1105346-.3583984-.3486328z" fill="#e69482"/></g><g><path d="m84.7432861 136.4259949c5.092453-4.7169952.1517105-13.36026 3.9897461-19.1025314.0776367-.1147461.2324219-.1445313.347168-.0688477.1147461.0771484.1455078.2324219.0688477.347168-2.4828186 3.7117767-1.1047058 8.7450256-1.4550781 12.9912033-.1533203 1.8671875-.730957 4.4584961-2.6108398 6.2001953-.2437745.2240905-.581688-.1416931-.3398439-.3671875z" fill="#e69482"/></g><g><path d="m91.6202393 139.2653503c-.1176758-2.0107422.4550781-4.0249023 1.612793-5.671875.1899872-.270401.5991516.0162354.4091797.2871094-1.0932617 1.5551758-1.6337891 3.4570313-1.5229492 5.3554688.0199965.3316803-.4794618.3618621-.4990235.0292968z" fill="#e69482"/></g><g><path d="m92.5640869 101.2765884c.6689453-1.1347656 1.1547852-2.3613281 1.4448242-3.6455078.0717087-.3232651.5608597-.2118683.4873047.1103516-.3007813 1.3344727-.8061523 2.609375-1.5014648 3.7890625-.1669159.2846374-.5991364.0315628-.4306641-.2539063z" fill="#e69482"/></g><g><path d="m97.2999268 111.3039322c.7495117-4.1103516 3.0292969-7.9907227 6.2548828-10.6469727.1049805-.0878906.2631836-.0737305.3515625.0341797.0878906.1064453.0727539.2636719-.0341797.3515625-3.1352539 2.5825195-5.3515625 6.3549805-6.0800781 10.3510742-.0592194.3250733-.5508805.2364884-.4921875-.0898437z" fill="#e69482"/></g><g><path d="m100.0220947 112.0632095c-.2859116-.1668777-.0359726-.5977631.2509766-.4326172 1.0146484.590332 2.2583008.8076172 3.4116211.5966797.3294678-.0553131.4121017.4330673.0898438.4921875-1.2936097.2348404-2.6547852-.0180359-3.7524415-.65625z" fill="#e69482"/></g><g><path d="m87.1348877 123.1398697c-1.0683594-1.8427734-3.0439453-3.159668-5.1567383-3.4365234-.3279495-.043335-.2623825-.5390091.0654297-.4960938 2.2626953.296875 4.3793945 1.7075195 5.5239258 3.6816406.1659775.2863694-.2669144.5370331-.4326172.2509766z" fill="#e69482"/></g><g><path d="m87.5642548 141.3167114c-.5669022.6917114-.9071045 1.5534058-.9638062 2.4378052-1.1364136-1.1364136-1.7573776-5.1741486-1.7687912-6.9846039.5851746-.4405365 1.1102371-.3809814 1.4059982-.1246948.3818665.3125.3495865.6556091 1.3265992 4.6714935z" fill="#e69482"/></g><g><path d="m80.9597549 83.2396164-12.1685028 5.1849976-1.4348983-3.3674012-1.9515-4.591896 12.168396-5.1753998 1.7889023 4.1996002z" fill="#3be094"/></g><g><path d="m79.3621521 79.4895172c-5.8401642.1730347-9.8623886 2.5621185-12.0057983 5.5676956l-1.9514999-4.5918961 12.168396-5.1753998z" fill="#2dc97d"/></g><g><g><path d="m107.3640518 21.1761169.861702 2.2563-5.690094 2.1728992-14.3154068 13.1312981-33.7294006 11.1477013-17.2159004 1.8801994c-.1000137.071228-4.8291359 3.4390717-3.8863983 2.7677002l-.8586006-2.2483978 22.7747993-28.1794014z" fill="#181e1e"/></g><g><path d="m108.2281494 23.4259167c-1.0255814.9390507 3.7152328-3.4017582-10.0301971 9.1839008l-9.1119003 8.373497-33.728199 11.1467018-21.9692993 2.3950005 22.7796973-28.1639004z" fill="#2a3134"/></g><g><path d="m95.5665512 49.1149178c.0173035.0667992.0376968.1415977.0550003.2082977.2461014.8595009.4952011 1.7270012.7269974 2.5919991.0061035.0160027.00811.0427017.0142059.0587006-.4733276-.465374-1.334259-1.019558-2.0115051-1.1387978-2.4179001-.396801-4.3800964-.4819031-6.6209946.3372993-5.134201 1.8871994-10.1775055 4.5282974-14.5009003 7.957901-5.2378998-.1910019-9.7070007 1.6530991-13.8753014 4.7576981-.8398018-1.8979988-1.6938019-3.7905998-2.5243988-5.6645012-1.6049004-3.5777969-3.1344032-7.0839996-4.2869987-10.3992996-.3549042-1.0207977-.2212029-2.1387978.3940964-2.919899 8.9496002-11.3633995 20.3247986-16.1695004 34.2209015-14.1858006.9193954.1312008 1.7491989.7707005 2.2045975 1.6736012.0328979.0650978.0655975.1303978.0984039.1958008 2.4560928 4.947998 4.4238968 10.6599998 6.105896 16.5270004z" fill="#4f575f"/></g><g><path d="m96.3266525 51.7105179c.802597 2.5124969-6.8502045 7.2008972-17.0929031 10.4719963-10.2427979 3.2710991-19.1967964 3.8860054-19.9992981 1.3735008-.802597-2.5123978 6.8502045-7.2008972 17.0929031-10.4718971 10.2427979-3.2711029 19.1968003-3.8861008 19.9992981-1.3736z" fill="#2a3134"/></g></g><g><path d="m98.5811539 125.6953125-11.4031982 4.8502045c-1.4445038.6121979-3.1091003-.0574036-3.7309036-1.5019989-21.890297-51.3986664-14.5252992-34.105568-16.0811006-37.7585984-.6122971-1.4445038.0574036-3.1186066 1.5018997-3.7309036l11.4030991-4.8597031c1.444603-.6121979 3.1187057.0574036 3.7310028 1.5018997 1.553627 3.6488724-5.8038101-13.6308746 16.0811005 37.7682037.6121979 1.4444963-.0573959 3.1091004-1.5018997 3.7308961z" fill="#ff6161"/></g><g><path d="m98.5811539 125.6953125-11.4031982 4.8502045c-1.4445038.6121979-3.1091003-.0574036-3.7309036-1.5019989l-5.1563034-12.1110001c.0764999-4.2475052-.8704987-8.5140991-2.7837982-12.3120041-.9566956-1.8941956-2.1524963-3.6926956-2.8030014-5.7206955-.6504974-2.0185013-.6695938-4.4006042.5931015-6.1034012 14.0991898 8.9536972 17.4199295 11.3558578 20.3668976 14.0818024l6.4191055 15.0861969c.6121978 1.4444962-.057396 3.1091003-1.5018998 3.730896z" fill="#f04444"/></g><g><path d="m91.7444534 29.9660168c-8.1371002-19.1156006-30.2307968-27.9971009-49.3464012-19.8706007-9.6050987 4.1000004-16.641098 11.7232008-20.2062969 20.7304993-3.533699 8.8815002-3.691 19.1156998.3565998 28.6054001 8.1264973 19.115696 30.2096977 27.9971962 49.3253937 19.8707008 8.9444046-3.8064041 15.6448059-10.6745987 19.4197998-18.8535995 0 0 .0104065-.0104027.0104065-.0209007 4.2781982-9.3010017 4.7710953-20.3007003.4404983-30.4614993zm-45.7602997-11.4714012c14.4705009-6.1552992 31.1953964.5767002 37.3610992 15.047102 6.1656952 14.4704971-.5766983 31.1953964-15.0472031 37.3610992s-31.1953926-.5766983-37.3610992-15.0471992c-6.1551971-14.470501.576706-31.1954022 15.0472031-37.361002z" fill="#4f91ff"/></g><g><path d="m91.2935486 60.4484177c-3.7749939 8.1790009-10.4753952 15.0471954-19.4197998 18.8535995-19.115696 8.1264954-41.1988983-.7550049-49.3253937-19.8707008-4.0475998-9.4897003-3.8902988-19.7238998-.3565998-28.6054001-.4508991 10.6955986 2.5899982 21.5485001 9.1750984 29.9476013 8.5983982 10.9576988 23.3939991 17.0918999 37.0256042 14.2503014 9.0386944-1.8770066 17.0708905-7.4029999 22.9010907-14.5754013z" fill="#3d76ef"/></g><g opacity=".48"><path d="m68.2980499 70.9028168c-14.4704971 6.1657028-31.1953926-.5766983-37.3610992-15.0471992-4.3830986-10.2970009-2.2334995-21.7476006 4.592802-29.7064018 2.7577972-3.229599 6.2810974-5.8825989 10.4543991-7.6546001 14.4705009-6.1552992 31.1953964.5767002 37.3610992 15.047102 6.1432057 14.4383047-.5386867 31.1734007-15.0472011 37.3610991z" fill="#ebf2ff"/></g><g><path d="m95.8454514 138.4468231c-3.7825012-1.8591003-5.7671967-6.0880127-6.8376007-10.1646118-1.0702972-4.0764923-1.5470963-8.3907928-3.5834961-12.0807953-1.1703033-2.1205978-2.8069-3.9384003-4.3370056-5.8159027-2.6697006-3.2757492-8.0373535-10.6811981-8.7492981-14.8399963-.3349991-1.9570007.0164032-4.1212006 1.3479004-5.5940018 1.4588013-1.6137009 3.876503-2.1226959 6.0041046-1.6693954 6.7760086 1.4432831 11.3538361 11.2348175 14.2206039 16.2825928 2.5864944 4.554306 5.7725906 9.1028061 10.5106888 11.3348007" fill="#f3b2a1"/><path d="m95.7349854 138.6711121c-3.2436523-1.5947266-5.5883789-5.0683594-6.96875-10.3251953-.2963867-1.1288986-.5512695-2.2919846-.7973633-3.4174728-1.7451401-7.9705963-2.506752-8.7763138-7.0751953-14.3852539-2.7079773-3.3222809-8.0807495-10.7442169-8.8022461-14.9555664-.3823242-2.2348633.1445313-4.4042969 1.4091797-5.8037109 1.4160156-1.5664063 3.8652344-2.2514648 6.2416992-1.746582 6.0387115 1.2861481 10.3040237 9.0071182 13.0361328 13.9755859 2.8980408 5.2708893 6.1189957 11.0079498 11.7495117 13.6606445.3000336.1406403.0853882.5924454-.2128906.4521484-5.7290802-2.698555-9.0013885-8.4660339-11.9746094-13.871582-2.7083282-4.9254074-6.8715439-12.4855423-12.7026367-13.7275391-2.2041016-.4697266-4.4672852.15625-5.7661133 1.5922852-1.1630859 1.2866211-1.644043 3.2993164-1.2871094 5.3847656.7023468 4.10569 6.0667496 11.4972153 8.6967773 14.7241211 4.5233688 5.5411224 5.3916626 6.4417953 7.1757813 14.59375.2451172 1.1206055.4990234 2.2788086.7924805 3.3974533 1.3417969 5.1098633 3.5981445 8.4755859 6.7060547 10.0039063.2962875.1446532.0765915.5948638-.2207031.4482421z" fill="#e69482"/></g><g><path d="m81.5750504 98.2345123c.8837051-.8145981 1.825798-1.7418976 1.9386978-2.9383926.1163025-1.2315063-.6824951-2.3414001-1.4401932-3.3192062-.8087006-1.043396-1.689003-2.139595-2.9383011-2.5661011-4.1150055-1.405098-6.3254013 4.0798035-5.4541016 7.2754059.3869019 1.4191971 1.6123962 3.0108948 2.5559998 4.0944977 1.7307968 1.9877014 3.9953995-1.308899 5.3378983-2.5462037z" fill="#e69482"/></g><g><path d="m84.2354736 107.8439713c2.1816406-.7905273 4.0927734-2.2880859 5.3808594-4.2167969.0766602-.1152344.2324219-.1459961.3466797-.0693359.1152344.0766602.1459961.2319336.0693359.3466797-1.347168 2.0170898-3.3452148 3.5830078-5.6269531 4.4091797-.3092117.113922-.4819412-.3571168-.1699219-.4697266z" fill="#e69482"/></g><g><path d="m94.1715088 123.0392838c1.1430664-1.9555664 2.793457-3.5727539 4.7734375-4.6772461.2883987-.1611252.53228.2749939.2431641.4365234-1.9013672 1.0610352-3.4868164 2.6147461-4.5849609 4.4926758-.1669465.2864456-.5984193.0326233-.4316407-.2519531z" fill="#e69482"/></g><g><path d="m113.144165 101.1198502c.123024-2.0160751 1.7398148-3.6516876 3.777832-3.7739258.3345566-.0169525.3573227.4793091.0302734.4990234-1.7786942.1064377-3.2009201 1.5338364-3.309082 3.3051758-.0207824.3325806-.5190124.3013535-.4990234-.0302734z" fill="#e69482"/></g><g opacity=".48"><path d="m84.8342514 51.3258171c-2.0237961 8.4724998-7.9064026 15.8964958-16.5362015 19.5769997-14.4704971 6.1657028-31.1953926-.5766983-37.3610992-15.0471992-4.3830986-10.2970009-2.2334995-21.7476006 4.592802-29.7064018-.8389015 3.4288998-1.4155998 6.910202-1.5309029 10.4439011-.1991959 6.1972008 1.1324997 12.5934982 4.7081032 17.6581993 6.7738991 9.5526009 21.8420982 14.9842033 32.8731003 10.0139961 5.8508473-2.6327783 10.2912846-7.3351556 13.2541981-12.9394952z" fill="#dbe6fa"/></g><g><path d="m150.4023438 147.2771149c-1.0809937 6.6486969-4.8309937 11.661499-11.2691956 15.0097046-1.855896.9757996-4.1326904.8132019-5.7973022-.459198-11.4039307-8.8147278-20.4066544-8.2610626-28.8426971-13.9286041l-.0095978-.1818085c5.9981995 2.4777069 12.0727997 4.9745026 18.4918976 5.9312134 10.7119446 1.5803375 21.0047455-1.6964111 25.6858063-11.3458099 1.3966979 1.2436065 2.0375975 3.1282043 1.7410888 4.9745025z" fill="#eca392"/></g><g opacity=".4"><g><path d="m115.4320297 107.4933548c1.2105026 3.2081757 2.523201 6.3744583 3.9298172 9.5015793 1.1860123 2.6366882 5.0651627.3510742 3.8856201-2.2712326-1.247467-2.7733002-2.4026794-5.581543-3.476181-8.4266281-1.0127411-2.6840439-5.3644791-1.5208512-4.3392563 1.1962814z" fill="#fff"/></g></g><g opacity=".4"><g><path d="m122.1856384 122.6661377c.4234543.6999817.9355469 1.3592224 1.5164185 1.9356689.8364792.830101 2.3578033.8978195 3.1819839 0 .8219299-.8953629.8926926-2.2960968 0-3.1819839-.4948196-.4910431-.2518005-.0975952-.8127823-1.0249252-.6090622-1.006813-2.0463943-1.4725571-3.0784225-.8071899-1.0116348.652214-1.459053 2.0008773-.8071976 3.0784301z" fill="#fff"/></g></g><g opacity=".4"><g><path d="m65.5421143 14.5333443c3.8460464 1.1529331 7.4324036 2.9429836 10.6008453 5.4226627 2.2549515 1.7647629 5.4614334-1.3980427 3.1819839-3.181982-3.8022232-2.975687-7.9546585-5.191431-12.5865555-6.579937-2.7799377-.8333454-3.9678192 3.5084276-1.1962737 4.3392563z" fill="#fff"/></g></g><g opacity=".4"><g><path d="m81.3534622 25.9350071c.2126007.2125988.4252014.4251976.6378021.6377983.8333817.833395 2.3599548.8954716 3.1819763 0 .8245316-.898201.8893433-2.2926273 0-3.1819801-.2126007-.2126007-.4252014-.4251995-.6378021-.6378002-.8333893-.8333874-2.3599472-.8954754-3.1819763 0-.8245315.8981971-.8893509 2.2926349 0 3.181982z" fill="#fff"/></g></g><g><path d="m122.5014496 69.2468185c-.1913986.0764999-.4113998.0573959-.6218948.0573959-1.1719666 0-1.9978714.5273361-1.7793045 1.6932983-.2201004-.5452957-1.0522995-.4209976-1.5307007-.0861969-.4684601.3232269-1.0325775.8032532-1.5783997.6505966-.2390976-.0573959-.4401016-.229599-.6791992-.2390976-.5549011-.0191956-.7749023.6983032-1.2053986 1.0427017-.951683.7746735-2.4237442-.4653549-3.4534988.5643997-.4590988.4496002-.707901 1.1478958-1.2627029 1.5114975-.5739975.3635025-1.3488998.248703-1.9132996-.1243973-.5643921-.3731003-.9470978-.9662018-1.2435989-1.5689011-2.305603-4.6110001-.7271042-10.3507996-2.6404037-15.1339989-.9241486-2.3368187-3.0581818-4.9025269-2.4584961-7.7010002.3348007-1.597599 1.6071014-2.8986015 3.1281967-3.4822006 2.1333008-.8227005 4.6588058-.1435013 6.0268021 1.6932983 1.0235977 1.3871002 1.4731979 3.0995026 2.0376968 4.735302 1.6549072 4.8405991 4.477005 9.2794991 8.1506042 12.8381996.4686966.459198.9565964.9087982 1.2435989 1.5018997.229599.4688037.4208984 1.7985003-.2200012 2.0472033z" fill="#ff6161"/></g><g><path d="m113.6237488 72.5855179c-.7893448-.0968399-1.4158096-.2104874-1.9706955.3443985-.5835037-3.5970001-1.1575012-7.2130966-1.7410049-10.8195992.9757003 3.5778008 2.2194061 7.0790978 3.7117004 10.4752007z" fill="#f04444"/></g><g><path d="m120.1002502 70.9975128c-.2201004-.5452957-1.0522995-.4209976-1.5307007-.0861969-.2773972.1913986-.5643005.4209976-.8704987.5549011-1.8845978-3.4439011-3.6830978-6.9261017-5.4145966-10.4369011 2.0567932 3.472599 5.0318985 6.2563972 7.8444977 9.1836967-.0764998.2105027-.0860976.4783021-.0287017.7845002z" fill="#f04444"/></g></g></svg>